<svg xmlns="http://www.w3.org/2000/svg" width="512" height="512" style="shape-rendering:geometricPrecision;text-rendering:geometricPrecision;image-rendering:optimizeQuality;fill-rule:evenodd;clip-rule:evenodd"><path style="opacity:.043" d="M31.5-.5h11c.045 4.622-2.288 6.955-7 7 0-.667-.333-1-1-1 .453-.958 1.12-1.792 2-2.5-1.435.311-2.768.145-4-.5-.886-.825-1.219-1.825-1-3zm6 2c2.5.01 2.668.678.5 2a2.428 2.428 0 0 1-.5-2z"/><path style="opacity:.039" d="M43.5-.5h2c-.667 1.333-1.333 1.333-2 0z"/><path style="opacity:.041" d="M88.5-.5h5c1.644 1.98 3.31 3.98 5 6a10.76 10.76 0 0 1-2.5 3 38.899 38.899 0 0 0-5.5-5c-1.021.502-1.188 1.168-.5 2l4.5 4.5-2.5 2.5c-.708-.88-1.542-1.547-2.5-2 0-.667-.333-1-1-1 0-.667-.333-1-1-1a14.691 14.691 0 0 0-3-3.5c1.939-1.432 3.272-3.265 4-5.5z"/><path style="opacity:.037" d="M95.5-.5h6c1.324 2.058.824 3.725-1.5 5a31.445 31.445 0 0 1-4.5-5z"/><path style="opacity:.043" d="M149.5-.5h3c0 .667.333 1 1 1a82.214 82.214 0 0 0 4 7.5c-.608.87-1.441 1.37-2.5 1.5-1.162-.687-2.328-.853-3.5-.5.88 1.356 1.214 2.856 1 4.5-2.765-.298-5.265-1.298-7.5-3-.044 2.26.789 4.26 2.5 6-.387 1.22-1.22 1.887-2.5 2-4.077-1.535-4.577-.701-1.5 2.5-.608.87-1.441 1.37-2.5 1.5a21.905 21.905 0 0 1-8.5-5c.333-1 1-1.667 2-2 .951.826 1.951.992 3 .5-1.017-1.05-1.184-2.216-.5-3.5.741-1.14 1.575-1.14 2.5 0 .473-4.604 3.14-6.437 8-5.5-2.585-3.76-1.585-5.093 3-4-.837-1.011-1.17-2.178-1-3.5z"/><path style="opacity:.045" d="M153.5.5v-1h8c.734 1.208 1.067 2.541 1 4a27.716 27.716 0 0 1-9-3z"/><path style="opacity:.042" d="M209.5-.5h4c0 .667.333 1 1 1 .514 1.866 1.18 3.7 2 5.5-.113 1.28-.78 2.113-2 2.5l-10-5c1.466-2.157 3.3-2.49 5.5-1 .47-1.077.303-2.077-.5-3z"/><path style="opacity:.043" d="M214.5.5v-1h10c-2.924 3.595-6.257 3.928-10 1zM267.5-.5h16c-1.536 2.592-3.869 3.592-7 3 .263 6.7-2.737 8.7-9 6 0-.667-.333-1-1-1-1.385-2.858-1.052-5.524 1-8zm6 1c.789.283 1.456.783 2 1.5a14.743 14.743 0 0 0-3 4.5 6.544 6.544 0 0 1-3-3c1.684-.65 3.017-1.65 4-3z"/><path style="opacity:.042" d="M328.5-.5h6c-3.861 1.364-3.861 3.03 0 5a24.443 24.443 0 0 1 3-5h6c-1.419.951-3.085 1.284-5 1-.12 7.141-3.287 8.808-9.5 5-1.612-1.956-1.778-3.956-.5-6z"/><path style="opacity:.044" d="M388.5-.5h9a18.473 18.473 0 0 0 2 3.5c-.608.87-1.441 1.37-2.5 1.5-3.293-1.056-6.126-2.723-8.5-5z"/><path style="opacity:.024" d="M399.5-.5h3c-1 1.333-2 1.333-3 0z"/><path style="opacity:.042" d="M445.5-.5h2a70.824 70.824 0 0 0 5 9.5c-.608.87-1.441 1.37-2.5 1.5-1.162-.687-2.328-.853-3.5-.5.88 1.356 1.214 2.856 1 4.5-3.269-.384-6.103-1.718-8.5-4 .811 2.641 1.978 5.308 3.5 8-1.12 2.096-2.62 2.43-4.5 1-.492 1.049-.326 2.049.5 3-.387 1.22-1.22 1.887-2.5 2a14.757 14.757 0 0 1-5.5-3l-1 1c1.994 2.316 2.994 4.982 3 8a6.846 6.846 0 0 1-4-1c-.552 1.503-.552 3.17 0 5-4.143-.738-7.81-2.571-11-5.5 1.365-1.682 2.865-1.849 4.5-.5v-4c1.425-.712 2.925-.879 4.5-.5-1.376-2.54-.71-4.54 2-6 1.284-.684 2.451-.517 3.5.5-.379-1.575-.212-3.075.5-4.5 1.496-.507 2.663-.007 3.5 1.5.507-1.496.007-2.663-1.5-3.5a13.923 13.923 0 0 0 3-4 21.406 21.406 0 0 1 5 0c-2.585-3.76-1.585-5.093 3-4-1.228-1.49-1.228-2.99 0-4.5z"/><path style="opacity:.039" d="M454.5-.5h5c0 .667.333 1 1 1-2.166 3.646-4.166 3.313-6-1z"/><path style="opacity:.004" d="M460.5.5v-1h2c-.342.838-1.008 1.172-2 1z"/><path style="opacity:.042" d="M506.5-.5h5v1c-2.485.76-2.485 1.76 0 3v5h-1c-.977 6.258-4.144 7.591-9.5 4-.004 1.868.496 3.702 1.5 5.5-.113 1.28-.78 2.113-2 2.5l-10-5c1.466-2.157 3.3-2.49 5.5-1a21.438 21.438 0 0 1 0-5c1.395-1.315 2.395-.981 3 1-.349-4.652 1.817-7.152 6.5-7.5l-1-1c.881-.708 1.547-1.542 2-2.5zm4 9c-7.012 4.244-7.512 3.577-1.5-2 .717.544 1.217 1.21 1.5 2z"/><path style="opacity:.043" d="M34.5 5.5c.667 0 1 .333 1 1 1.5 2.01 1 3.342-1.5 4-7.772-5.221-8.272-4.388-1.5 2.5-1.417 2.826-2.917 2.993-4.5.5.208 5.294-2.292 7.627-7.5 7 .5 5.83-2.166 8.163-8 7 0-.667-.333-1-1-1 0-.667-.333-1-1-1-1.806-6.355.527-9.188 7-8.5-1.245-4.787.755-7.454 6-8l-1-1a14.505 14.505 0 0 0 4-5c3.11-.612 5.777.22 8 2.5zm-14 7c1.978.644 3.311 1.978 4 4-2.55 1.331-4.216.498-5-2.5.556-.383.89-.883 1-1.5zm-3 6c.79.283 1.456.783 2 1.5-1.537 1.11-2.203 2.61-2 4.5-2.614.223-4.28-.944-5-3.5 2.153-.1 3.82-.933 5-2.5z"/><path style="opacity:.03" d="M259.5 2.5c3.808.939 3.808 2.272 0 4-2.294-1.125-2.294-2.459 0-4z"/><path style="opacity:.034" d="M453.5 2.5c1.495-.085 2.495.581 3 2-.82 1.611-2.154 2.278-4 2-.067-1.459.266-2.792 1-4z"/><path style="opacity:.041" d="M204.5 18.5c0-.667-.333-1-1-1 0-.667-.333-1-1-1 0-.667-.333-1-1-1 0-.667-.333-1-1-1 0-.667-.333-1-1-1 0-.667-.333-1-1-1 2.801-8.405 6.967-9.071 12.5-2 .483.948.649 1.948.5 3-3.114-.591-5.614-2.258-7.5-5l-1.5 1.5a21.376 21.376 0 0 1 5 6c-.248 1.75-1.248 2.582-3 2.5zM266.5 7.5c.667 0 1 .333 1 1 3.852 4.44 2.685 7.44-3.5 9a75.707 75.707 0 0 0-6.5-2.5 38.918 38.918 0 0 1 5 5.5c-.333 1-1 1.667-2 2a19.897 19.897 0 0 1-4-3.5c-1.135-.75-2.135-.583-3 .5a38.918 38.918 0 0 0 5 5.5c-1.066 2.012-2.4 2.512-4 1.5-.977 6.258-4.144 7.591-9.5 4-.004 1.868.496 3.702 1.5 5.5-.113 1.28-.78 2.113-2 2.5a98.562 98.562 0 0 0-8.5-4c-1.257-.35-1.591-1.017-1-2 1.667-1.333 3.333-1.333 5 0a21.438 21.438 0 0 1 0-5c1.395-1.315 2.395-.981 3 1-.349-4.652 1.817-7.152 6.5-7.5l-1-1a14.506 14.506 0 0 0 4-5l4-1c-1.934-2.271-1.934-4.271 0-6 2.532.431 4.866-.402 7-2.5 1.018.693 2.018 1.36 3 2zm-5 4c.397-1.025 1.063-1.192 2-.5 1.507.837 2.007 2.004 1.5 3.5a14.694 14.694 0 0 0-3.5-3zm-7 15c-7.012 4.244-7.512 3.577-1.5-2 .717.544 1.217 1.21 1.5 2z"/><path style="opacity:.909" d="M328.5 11.5v4a108.862 108.862 0 0 1 36.5 6c2.606-2.192 5.439-2.526 8.5-1 0 .667.333 1 1 1 0 .667.333 1 1 1-.262 1.478.071 2.811 1 4 9.692 4.174 18.359 9.84 26 17a236.206 236.206 0 0 1 8-6c2.568 1.059 4.735 2.726 6.5 5 .699 1.574.365 2.907-1 4-1.858-2.912-4.358-4.412-7.5-4.5l4.5 4.5c.699 1.574.365 2.907-1 4-1.74-2.453-3.907-3.953-6.5-4.5L419 61.5l10.5 17c2.46-3.96 5.46-7.46 9-10.5 4.238-.13 7.238 1.87 9 6-.13 1.059-.63 1.892-1.5 2.5-1.858-2.912-4.358-4.412-7.5-4.5l4.5 4.5c.699 1.574.365 2.907-1 4-1.858-2.912-4.358-4.412-7.5-4.5a21.376 21.376 0 0 1 5 6c-1.093 3.12-2.593 3.287-4.5.5.263 2.265-.237 4.598-1.5 7a119.954 119.954 0 0 1 6.5 37c.741-1.141 1.575-1.141 2.5 0 1.211.774 1.211 1.607 0 2.5 5.223.567 6.223 2.901 3 7a22.981 22.981 0 0 1-5 2c-2.185 15.656-7.185 30.656-15 45 4.855 1.164 9.188.331 13-2.5a9.425 9.425 0 0 1 3 3c2.655 1.52 3.322 1.02 2-1.5.875-4.092 3.208-5.592 7-4.5-.478-4.784 1.855-7.617 7-8.5l-1-1a14.506 14.506 0 0 0 4-5 12.93 12.93 0 0 1 5-.5c-.349-3.49 1.151-5.823 4.5-7 2.122.72 2.622 1.887 1.5 3.5 4.137-.203 5.637 1.63 4.5 5.5a125.138 125.138 0 0 0-7.5 6 19.887 19.887 0 0 1-4-3.5c-1.135-.749-2.135-.583-3 .5a38.929 38.929 0 0 0 5 5.5c-1.417 2.826-2.917 2.993-4.5.5.438 5.058-2.062 7.391-7.5 7a11.988 11.988 0 0 1-1 6c10.408 4.257 19.241 10.59 26.5 19 .953-3.953 3.453-6.119 7.5-6.5l-1-1a14.506 14.506 0 0 0 4-5 12.93 12.93 0 0 1 5-.5 6.547 6.547 0 0 0 3 3c0 .667.333 1 1 1 1.476 1.73 1.142 3.063-1 4a19.887 19.887 0 0 1-4-3.5c-1.135-.749-2.135-.583-3 .5a38.929 38.929 0 0 0 5 5.5c-1.417 2.826-2.917 2.993-4.5.5.167 5.167-2.333 7.667-7.5 7.5 6.203 9.246 10.037 19.412 11.5 30.5 1.363-2.284 2.863-2.451 4.5-.5-1.129 2.168-2.629 2.668-4.5 1.5-.854 2.972-.021 3.972 2.5 3 0 .667.333 1 1 1 0 .667.333 1 1 1-.624 2.005.21 3.672 2.5 5 .383-.556.883-.889 1.5-1 0 .667.333 1 1 1-.059 2.222-1.225 3.222-3.5 3a75.806 75.806 0 0 0-6.5-2.5 38.929 38.929 0 0 1 5 5.5c-1.501 2.457-3.168 2.457-5 0-6.07 27.747-23.403 45.414-52 53 1.231 3.6.064 4.6-3.5 3 .379 1.575.212 3.075-.5 4.5-3.789-.242-7.123-1.742-10-4.5a3.647 3.647 0 0 1 1-1.5c1.585-.085 2.918-.251 4-.5-16-1.333-32-1.333-48 0-1.571 2.593-3.904 3.593-7 3 1.511 3.978.178 6.312-4 7-2.161 11.83-9.161 19.164-21 22a10.756 10.756 0 0 1-2.5 3 72.367 72.367 0 0 0-.5 12c9.298.231 16.465 4.231 21.5 12 1.38-3.383 3.88-5.216 7.5-5.5l-1-1a14.506 14.506 0 0 0 4-5c3.111-.612 5.777.221 8 2.5 0 .667.333 1 1 1 1.5 2.009 1 3.342-1.5 4-7.772-5.221-8.272-4.388-1.5 2.5-1.417 2.826-2.917 2.993-4.5.5.208 5.294-2.292 7.627-7.5 7 .319 2.25-.181 4.25-1.5 6l-1 39c-2.833 8.167-8.333 13.667-16.5 16.5l-42 1c1.333 1 1.333 2 0 3a21.438 21.438 0 0 1-5 0c1.38 1.324 1.714 2.657 1 4-2.169.429-4.169-.071-6-1.5-.723 1.664-.39 3.331 1 5-1.12 2.096-2.62 2.43-4.5 1-.492 1.049-.326 2.049.5 3-.387 1.22-1.22 1.887-2.5 2a65.823 65.823 0 0 1-8.5-5c1.12-2.096 2.62-2.43 4.5-1 .492-1.049.326-2.049-.5-3 1.388-2.579 2.888-2.579 4.5 0 .507-1.496.007-2.663-1.5-3.5 2.182-2.775 4.848-3.775 8-3l-1-1a384.59 384.59 0 0 0-48 .5 4.457 4.457 0 0 1-1.5 2c-1.263-2.297-3.097-3.13-5.5-2.5 3.289 1.959 3.623 4.125 1 6.5a185.977 185.977 0 0 0-3-2c0-.667-.333-1-1-1 0-.667-.333-1-1-1-.453-.958-1.119-1.792-2-2.5a528.986 528.986 0 0 0-46 0l-4 1c1.321 1.545.988 2.711-1 3.5a31.633 31.633 0 0 0-5.5-4c-1.257.35-1.591 1.017-1 2l4.5 4.5c-1.417 2.826-2.917 2.993-4.5.5.438 5.058-2.062 7.391-7.5 7 .263 6.7-2.737 8.7-9 6 0-.667-.333-1-1-1-1.686-4.298-.353-7.298 4-9l2 1c-.478-4.784 1.855-7.617 7-8.5-.958-1.147-.625-2.147 1-3l-32-1a25.724 25.724 0 0 1-7.5-3.5c-.708.881-1.542 1.547-2.5 2 0-.667-.333-1-1-1-1.333-2-3-3.667-5-5 0-.667-.333-1-1-1 2.853-3.647 2.52-4.313-1-2a4.457 4.457 0 0 1-2-1.5 19.887 19.887 0 0 1 4-3.5c-.649-12.635-1.315-25.301-2-38l-5-4c-1.021.502-1.188 1.168-.5 2l4.5 4.5c-1.417 2.826-2.917 2.993-4.5.5.208 5.294-2.292 7.627-7.5 7 .627 5.208-1.706 7.708-7 7.5 1.112 2.108.446 3.608-2 4.5a283.258 283.258 0 0 0 0 47 5.576 5.576 0 0 0 3 1c-.718-1.637-.884-3.303-.5-5a3.647 3.647 0 0 1 1.5-1 31.147 31.147 0 0 0 2 2c1.461 2.894 2.294 5.894 2.5 9a3.647 3.647 0 0 1-1.5 1c-7.216-4.585-8.216-3.918-3 2-1.388 2.579-2.888 2.579-4.5 0-.72 1.612-.554 3.112.5 4.5a8.905 8.905 0 0 1-4 3c-.086 3.692-1.419 4.025-4 1-8.09-2.101-9.59-.267-4.5 5.5a8.43 8.43 0 0 1 .5 4 6.845 6.845 0 0 1-4-1c-.552 1.503-.552 3.169 0 5a78.122 78.122 0 0 1-9-2.5c1.646 2.449 2.813 4.949 3.5 7.5-1.787.843-3.62 1.01-5.5.5 2.54 2.086 2.373 3.586-.5 4.5-5.252-3.245-6.418-2.245-3.5 3-1.12 2.096-2.62 2.43-4.5 1 .379 1.575.212 3.075-.5 4.5-3.79-.242-7.123-1.742-10-4.5 1.12-2.096 2.62-2.43 4.5-1 .492-1.049.326-2.049-.5-3 1.388-2.579 2.888-2.579 4.5 0 .507-1.496.007-2.663-1.5-3.5 2.182-2.775 4.849-3.775 8-3-1.017-1.049-1.184-2.216-.5-3.5a23.567 23.567 0 0 0 3.5-1 3.646 3.646 0 0 0-1-1.5 6.977 6.977 0 0 0 2.5-3.5c1.333-1.333 2.667-1.333 4 0v-4c1.425-.712 2.925-.879 4.5-.5-.837-1.011-1.17-2.178-1-3.5h-15c-4.444 15.428-14.777 23.428-31 24-6.59.358-12.59-1.309-18-5-1.044 4.203-3.044 4.87-6 2 0-.667-.333-1-1-1 0-.667-.333-1-1-1-2.648-2.298-2.648-4.632 0-7-7.822-12.861-7.989-25.861-.5-39 13.144-14.337 28.31-16.837 45.5-7.5a45.24 45.24 0 0 0 8.5 7.5c1.182 3.688 2.348 7.355 3.5 11h17v-31c-2.953.35-5.287-.65-7-3-1.309-5.189.691-8.022 6-8.5-1.154-.914-.987-1.747.5-2.5.5-14.996.667-29.996.5-45h-4c.263 6.7-2.737 8.7-9 6 0-.667-.333-1-1-1-1.743-6.385.59-9.218 7-8.5-1.245-4.787.755-7.454 6-8-1.154-.914-.987-1.747.5-2.5.5-7.993.666-15.993.5-24h16c-.166 5.344.001 10.677.5 16 .383.556.883.889 1.5 1 .269 1.929-.231 3.595-1.5 5a484.008 484.008 0 0 0 0 44c1.972-1.932 4.138-2.432 6.5-1.5-1.245-4.787.755-7.454 6-8l-1-1a14.506 14.506 0 0 0 4-5c2.997-.755 5.497.078 7.5 2.5-.405-1.879-1.238-3.713-2.5-5.5.6-3.772 2.6-5.272 6-4.5 3.061-2.548 5.061-5.715 6-9.5 1.798-1.505 3.632-1.672 5.5-.5-.656-6.273 2.177-8.773 8.5-7.5-1.074-.739-1.741-1.739-2-3 1.701-1.86 2.701-4.027 3-6.5-11.871-.032-19.704-5.698-23.5-17-1.667 2.667-3.333 2.667-5 0 .438 5.058-2.062 7.391-7.5 7 1.514 5.983-.819 8.15-7 6.5-4.406-4.39-3.906-7.89 1.5-10.5a3.943 3.943 0 0 1 2 1c-.974-5.004 1.192-7.671 6.5-8a4.934 4.934 0 0 1 .5-3c2.64-2.395 5.14-4.895 7.5-7.5a552.224 552.224 0 0 0-47 0c1.194 2.658.194 3.824-3 3.5-.17-1.322.163-2.489 1-3.5-2.829-.969-5.162-.303-7 2 5.598.205 6.931 2.538 4 7-1.525 1.009-3.192 1.509-5 1.5 0-.667-.333-1-1-1 0-1.333-.667-2-2-2 0-.667-.333-1-1-1 0-.667-.333-1-1-1-.028-2.082.639-3.916 2-5.5-12.81-1.703-24.31-5.87-34.5-12.5.208 5.294-2.292 7.627-7.5 7 .627 5.208-1.706 7.708-7 7.5 1.112 2.108.446 3.608-2 4.5 0-.667-.333-1-1-1-1.333-2-3-3.667-5-5 0-.667-.333-1-1-1 .892-2.446 2.392-3.112 4.5-2 .365-4.721 2.698-6.721 7-6 .032-5.031 2.532-7.865 7.5-8.5-8.616-7.73-14.282-17.23-17-28.5-3.31.039-5.976-1.294-8-4-1.021.502-1.188 1.168-.5 2l4.5 4.5c-1.417 2.826-2.917 2.993-4.5.5.208 5.294-2.292 7.627-7.5 7 .592 3.131-.408 5.464-3 7v-6c2.667-1 2.667-2 0-3v-7c1.689-1.431 3.689-2.264 6-2.5l-1-1a14.505 14.505 0 0 0 4-5c2.997-.755 5.497.078 7.5 2.5-4.496-30.047 6.338-53.547 32.5-70.5a96.606 96.606 0 0 1 26-8.5 54.866 54.866 0 0 1-2.5-10l-1-23-4-4-1.5 1.5a21.368 21.368 0 0 1 5 6c-.248 1.749-1.248 2.582-3 2.5 0-.667-.333-1-1-1 0-.667-.333-1-1-1 0-.667-.333-1-1-1 0-.667-.333-1-1-1 0-.667-.333-1-1-1 0-.667-.333-1-1-1 1.559-7.121 5.059-8.455 10.5-4 .75-1.135.583-2.135-.5-3a15.685 15.685 0 0 1-4-2c1.466-2.157 3.3-2.49 5.5-1 9.795-33.466 31.629-55.633 65.5-66.5-.82-4.361 1.18-6.528 6-6.5a4.934 4.934 0 0 1 .5-3c2.64-2.395 5.14-4.895 7.5-7.5 3.665-.387 6.498 1.113 8.5 4.5.699 1.574.365 2.907-1 4-1.858-2.912-4.358-4.412-7.5-4.5l4.5 4.5c.699 1.574.365 2.907-1 4-1.858-2.912-4.358-4.412-7.5-4.5 2.742 1.886 4.409 4.386 5 7.5 6.009-.166 12.009 0 18 .5 8.268 1.954 16.435 3.454 24.5 4.5v-4c1.587-1.227 2.921-.894 4 1 .507-1.496.007-2.663-1.5-3.5l4-4h4c-1.017-1.05-1.184-2.216-.5-3.5a23.625 23.625 0 0 0 3.5-1 3.647 3.647 0 0 0-1-1.5 13.923 13.923 0 0 0 3-4 21.405 21.405 0 0 1 5 0c-2.585-3.76-1.585-5.093 3-4-1.43-1.88-1.096-3.38 1-4.5a88.252 88.252 0 0 1 6 9.5c-.608.87-1.441 1.37-2.5 1.5-1.162-.687-2.328-.853-3.5-.5.88 1.356 1.214 2.856 1 4.5-3.547-.959-6.881-2.126-10-3.5 2.222 2.618 3.722 5.451 4.5 8.5-1.787.843-3.62 1.01-5.5.5 2.54 2.087 2.373 3.587-.5 4.5a18.32 18.32 0 0 1-7-4c.811 2.641 1.978 5.308 3.5 8a3.647 3.647 0 0 1-1 1.5c-1.585.085-2.918.251-4 .5 1.211 1.22 1.211 2.387 0 3.5A61.556 61.556 0 0 1 220 95.5c10.554-33.222 31.72-57.056 63.5-71.5 11.854-4.526 23.854-7.526 36-9-2.975-3.752-2.142-6.585 2.5-8.5 2.122.72 2.622 1.887 1.5 3.5 1.747.352 3.414.852 5 1.5zm-5 2c2.501.01 2.668.678.5 2a2.429 2.429 0 0 1-.5-2zm-182 57c1.603-.188 2.937.312 4 1.5-1.963.844-3.296.344-4-1.5zm301 62c2.501.011 2.668.678.5 2a2.428 2.428 0 0 1-.5-2zm-3 1c2.501.011 2.668.678.5 2a2.428 2.428 0 0 1-.5-2zm32 29c2.501.011 2.668.678.5 2a2.428 2.428 0 0 1-.5-2zm-17 11c3.432-.252 4.432 1.081 3 4-1.788-.783-2.788-2.116-3-4zm0 7c-2.162.397-3.495 1.731-4 4a6.547 6.547 0 0 1-3-3 14.748 14.748 0 0 0 4.5-3c.995.566 1.828 1.233 2.5 2zm30 22c1.978.644 3.311 1.978 4 4-2.549 1.331-4.216.498-5-2.5.556-.383.889-.883 1-1.5zm-482 66c1.978.644 3.311 1.978 4 4-2.55 1.331-4.216.498-5-2.5.556-.383.89-.883 1-1.5zm30 30c2.291 1.042 3.291 2.542 3 4.5-3.227-.056-4.227-1.556-3-4.5zm-3 6c.79.283 1.456.783 2 1.5-1.537 1.11-2.203 2.61-2 4.5-2.614.223-4.28-.944-5-3.5 2.153-.099 3.82-.933 5-2.5zm350 11c-2.276.256-3.443 1.59-3.5 4-.82-2.228-.487-4.228 1-6 .995.566 1.828 1.233 2.5 2zm-300 2c2.5.011 2.668.678.5 2a2.427 2.427 0 0 1-.5-2zm51 3c3.357-1.157 4.857.176 4.5 4a25.14 25.14 0 0 0-4.5-4zm-7 6c3.432-.252 4.432 1.081 3 4-1.788-.783-2.788-2.116-3-4zm0 7c-2.162.397-3.495 1.731-4 4a6.547 6.547 0 0 1-3-3 14.748 14.748 0 0 0 4.5-3c.995.566 1.828 1.233 2.5 2zm98 15c-3.533-1.296-4.533-.129-3 3.5-3.152-.775-5.818.225-8 3 2.686 3.476 2.353 3.976-1 1.5a3.647 3.647 0 0 0-1.5 1 98.432 98.432 0 0 1-.5-14 112.97 112.97 0 0 1 15 .5l-2 2c.752.671 1.086 1.504 1 2.5zm65-2c3.618 1.789 6.618 1.122 9-2a16.873 16.873 0 0 1 8-1v16c-8.673.166-17.34 0-26-.5l-4-4 1.5-1.5c1.886 2.742 4.386 4.409 7.5 5-.878-3.882-3.211-6.548-7-8-3.462 1.125-5.462 3.459-6 7-1.6-1.012-2.934-.512-4 1.5-16 .667-32 .667-48 0-.752-.671-1.086-1.504-1-2.5a36.87 36.87 0 0 1 5.5 2c2.873-.914 3.04-2.414.5-4.5 1.88.51 3.713.343 5.5-.5-.826-2.667-1.992-5.334-3.5-8a27.718 27.718 0 0 0 9 3c-.552-1.831-.552-3.497 0-5 15.575-.099 31.242.067 47 .5 3.077 3.201 2.577 4.035-1.5 2.5-1.434.43-2.601 1.264-3.5 2.5a67.254 67.254 0 0 1 10 4.5c1.381-.5 2.047-1.5 2-3a343.58 343.58 0 0 1-1-4zm-133 10c1.846-.278 3.18.389 4 2-2.333 1.441-3.666.775-4-2zm-62 1c1.978.644 3.311 1.978 4 4-2.55 1.331-4.216.498-5-2.5.556-.383.89-.883 1-1.5zm-3 6c.79.283 1.456.783 2 1.5a14.759 14.759 0 0 0-3 4.5 6.544 6.544 0 0 1-3-3c1.684-.65 3.017-1.65 4-3zm289 6c1.978.644 3.311 1.978 4 4-2.549 1.331-4.216.498-5-2.5.556-.383.889-.883 1-1.5zm-242 61c-1.188 1.184-2.355 1.184-3.5 0l-2.5 2.5c.837 1.011 1.17 2.178 1 3.5-1.322-.17-2.489.163-3.5 1a11.532 11.532 0 0 1-3.5 4.5c.556.383.889.883 1 1.5-5.362.046-7.362 2.713-6 8a31.147 31.147 0 0 1-2-2 3.647 3.647 0 0 0-1.5 1c-.384 1.697-.218 3.363.5 5a5.576 5.576 0 0 1-3-1 283.258 283.258 0 0 1 0-47c2.446-.892 3.112-2.392 2-4.5 5.294.208 7.627-2.292 7-7.5 5.208.627 7.708-1.706 7.5-7 1.583 2.493 3.083 2.326 4.5-.5l-4.5-4.5c-.688-.832-.521-1.498.5-2l5 4c.685 12.699 1.351 25.365 2 38a19.887 19.887 0 0 0-4 3.5 4.457 4.457 0 0 0 2 1.5c3.52-2.313 3.853-1.647 1 2zm-14-43c1.978.644 3.311 1.978 4 4-2.549 1.331-4.216.498-5-2.5.556-.383.889-.883 1-1.5zm-3 6c.789.283 1.456.783 2 1.5-1.537 1.11-2.203 2.61-2 4.5-2.614.223-4.281-.944-5-3.5 2.153-.099 3.819-.933 5-2.5zm-24 26c1.273.577 1.273 1.243 0 2-.963-.47-.963-1.137 0-2zm42 12c2 1.333 3.667 3 5 5-3.726.949-5.393-.718-5-5zm106 14c3.432-.252 4.432 1.081 3 4-1.788-.783-2.788-2.116-3-4zm-113 3c-7.012 4.244-7.512 3.577-1.5-2 .717.544 1.217 1.211 1.5 2zm51-1c3.432-.252 4.432 1.081 3 4-1.788-.783-2.788-2.116-3-4zm62 5c-2.162.397-3.495 1.731-4 4a6.547 6.547 0 0 1-3-3 14.748 14.748 0 0 0 4.5-3c.995.566 1.828 1.233 2.5 2zm-62 2c-2.162.397-3.495 1.731-4 4a6.547 6.547 0 0 1-3-3 14.748 14.748 0 0 0 4.5-3c.995.566 1.828 1.233 2.5 2z"/><path style="opacity:.043" d="M87.5 8.5c.667 0 1 .333 1 1 .667 0 1 .333 1 1 1.163 5.834-1.17 8.5-7 8-.12 7.141-3.287 8.808-9.5 5-2.258-6.336-.091-9.17 6.5-8.5-.924-6.23 1.742-8.396 8-6.5zm-5 2c1.978.644 3.311 1.978 4 4-2.55 1.331-4.216.498-5-2.5.556-.383.89-.883 1-1.5zm-3 6c.79.283 1.456.783 2 1.5a14.754 14.754 0 0 0-3 4.5 6.541 6.541 0 0 1-3-3c1.684-.65 3.017-1.65 4-3z"/><path style="opacity:.041" d="M375.5 22.5c-.667 0-1-.333-1-1-.667 0-1-.333-1-1a14.696 14.696 0 0 0-3-3.5 14.506 14.506 0 0 0 4-5 4.932 4.932 0 0 1 3-.5c.788-4.297 3.121-5.13 7-2.5 4.174 2.085 4.674 4.585 1.5 7.5-1.74-2.454-3.907-3.954-6.5-4.5a38.918 38.918 0 0 1 5 5.5 10.756 10.756 0 0 1-2.5 3 38.91 38.91 0 0 0-5.5-5c-1.021.502-1.188 1.168-.5 2l4.5 4.5-2.5 2.5c-.708-.88-1.542-1.547-2.5-2z"/><path style="opacity:.036" d="M193.5 8.5c2.64 1.294 2.64 2.627 0 4-2.294-1.125-2.294-2.459 0-4zM328.5 11.5c.703-3.36 2.037-3.694 4-1-.937 2.142-2.27 2.476-4 1z"/><path style="opacity:.044" d="M198.5 12.5c.667 0 1 .333 1 1 .667 0 1 .333 1 1 .667 0 1 .333 1 1 .667 0 1 .333 1 1 .667 0 1 .333 1 1 .667 0 1 .333 1 1a10.526 10.526 0 0 1-2.5 3l-7.5-7.5c1.066-2.012 2.4-2.512 4-1.5z"/><path style="opacity:.042" d="M189.5 17.5c2.799 2.66 5.133 5.827 7 9.5-.608.87-1.441 1.37-2.5 1.5-1.162-.687-2.328-.853-3.5-.5.88 1.356 1.214 2.856 1 4.5-3.269-.384-6.103-1.718-8.5-4 .811 2.641 1.978 5.308 3.5 8-1.12 2.096-2.62 2.43-4.5 1-.492 1.049-.326 2.049.5 3-.387 1.22-1.22 1.886-2.5 2a14.757 14.757 0 0 1-5.5-3l-1 1c1.994 2.316 2.994 4.982 3 8a6.846 6.846 0 0 1-4-1c-.552 1.503-.552 3.17 0 5-4.143-.738-7.81-2.571-11-5.5 1.365-1.682 2.865-1.849 4.5-.5v-4c1.425-.712 2.925-.879 4.5-.5-1.376-2.54-.71-4.54 2-6 1.284-.684 2.451-.517 3.5.5-.379-1.575-.212-3.075.5-4.5 1.496-.507 2.663-.007 3.5 1.5.507-1.496.007-2.663-1.5-3.5a13.923 13.923 0 0 0 3-4 21.405 21.405 0 0 1 5 0c-2.585-3.76-1.585-5.093 3-4-1.228-1.49-1.228-2.99 0-4.5z"/><path style="opacity:.043" d="M490.5 30.5c0-.667-.333-1-1-1 0-.667-.333-1-1-1 0-.667-.333-1-1-1 0-.667-.333-1-1-1 0-.667-.333-1-1-1 0-.667-.333-1-1-1 0-.667-.333-1-1-1 4.427-7.935 9.094-7.935 14 0-.333 1-1 1.667-2 2a19.897 19.897 0 0 1-4-3.5c-1.135-.75-2.135-.583-3 .5a38.918 38.918 0 0 0 5 5.5 10.51 10.51 0 0 1-3 2.5z"/><path style="opacity:.03" d="M3.5 20.5c3.808.939 3.808 2.272 0 4-2.294-1.125-2.294-2.459 0-4z"/><path style="opacity:.034" d="M197.5 20.5c1.495-.085 2.495.581 3 2-.82 1.611-2.154 2.278-4 2-.067-1.459.266-2.792 1-4z"/><path style="opacity:.03" d="M481.5 23.5c-.667 0-1 .333-1 1-2.186-.01-3.019-1.01-2.5-3 2.149-1.34 3.316-.673 3.5 2z"/><path style="opacity:.04" d="M10.5 25.5c.667 0 1 .333 1 1 .667 0 1 .333 1 1a186.2 186.2 0 0 0 2 3c-1.826 4.018-4.826 5.518-9 4.5-.966-1.678-2.3-2.345-4-2L6 37.5c.5 2.167-.333 3-2.5 2.5a19.567 19.567 0 0 0-4-3.5v-4c1.333-.333 1.333-.667 0-1v-5c2.858.29 5.525-.71 8-3 1.018.692 2.018 1.36 3 2zm-5 4c.397-1.025 1.063-1.192 2-.5 1.507.837 2.007 2.004 1.5 3.5a14.691 14.691 0 0 0-3.5-3z"/><path style="opacity:.041" d="M481.5 23.5h2c.667 0 1 .333 1 1 .667 0 1 .333 1 1 .667 0 1 .333 1 1 .667 0 1 .333 1 1 .667 0 1 .333 1 1 .667 0 1 .333 1 1 .667 0 1 .333 1 1a10.526 10.526 0 0 1-2.5 3c-3.112-2.6-5.612-5.6-7.5-9 .667 0 1-.333 1-1z"/><path style="opacity:.042" d="M72.5 29.5c.045 4.622-2.288 6.955-7 7 0-.667-.333-1-1-1 .453-.958 1.12-1.792 2-2.5-.95-.617-1.782-.45-2.5.5-3.578-3.773-2.911-6.773 2-9 2.122.72 2.622 1.887 1.5 3.5a27.57 27.57 0 0 1 5 1.5zm-5 2c2.5.01 2.668.678.5 2a2.428 2.428 0 0 1-.5-2z"/><path style="opacity:.041" d="M119.5 40.5c0-.667-.333-1-1-1 0-.667-.333-1-1-1a14.696 14.696 0 0 0-3-3.5 14.506 14.506 0 0 0 4-5 4.932 4.932 0 0 1 3-.5c.788-4.297 3.121-5.13 7-2.5 4.174 2.085 4.674 4.585 1.5 7.5-1.74-2.453-3.907-3.953-6.5-4.5a38.918 38.918 0 0 1 5 5.5 10.756 10.756 0 0 1-2.5 3 38.91 38.91 0 0 0-5.5-5c-1.021.502-1.188 1.168-.5 2l4.5 4.5-2.5 2.5c-.708-.88-1.542-1.547-2.5-2z"/><path style="opacity:.036" d="M72.5 29.5c.703-3.36 2.037-3.694 4-1-.937 2.142-2.27 2.476-4 1z"/><path style="opacity:.042" d="M475.5 29.5c2.799 2.66 5.133 5.827 7 9.5-.608.87-1.441 1.37-2.5 1.5-1.162-.687-2.328-.853-3.5-.5.88 1.356 1.214 2.856 1 4.5-3.547-.959-6.881-2.126-10-3.5a89.809 89.809 0 0 1 5 7.5c-.387 1.22-1.22 1.886-2.5 2-4.077-1.535-4.577-.701-1.5 2.5-3.547 1.52-6.714.687-9.5-2.5.811 2.641 1.978 5.308 3.5 8-1.12 2.096-2.62 2.43-4.5 1 .379 1.575.212 3.075-.5 4.5-3.789-.242-7.123-1.742-10-4.5 1.12-2.096 2.62-2.43 4.5-1 .492-1.049.326-2.049-.5-3 1.388-2.579 2.888-2.579 4.5 0 .507-1.496.007-2.663-1.5-3.5l4-4h4c-1.017-1.05-1.184-2.216-.5-3.5a23.625 23.625 0 0 0 3.5-1 3.647 3.647 0 0 0-1-1.5 13.923 13.923 0 0 0 3-4 21.405 21.405 0 0 1 5 0c-2.585-3.76-1.585-5.093 3-4-1.228-1.49-1.228-2.99 0-4.5z"/><path style="opacity:1" fill="#55a1fb" d="M372.5 42.5c41.262 34.035 52.762 76.369 34.5 127a102.26 102.26 0 0 1-13.5 21.5c2.646.497 5.313.664 8 .5.683 3.52 2.683 6.02 6 7.5l32 1a56.477 56.477 0 0 1 10 2.5c24.588 22.089 28.754 47.755 12.5 77a150.774 150.774 0 0 1-9.5 11c-3.215 2.356-6.881 3.856-11 4.5-21.997.5-43.997.667-66 .5 1.866-13.097-2.801-22.93-14-29.5a31.284 31.284 0 0 0-10-1.5 73.133 73.133 0 0 1 1-17c10.875-1.047 18.041-6.714 21.5-17a186.592 186.592 0 0 0 0-47c-4.496-9.492-11.996-14.659-22.5-15.5-64-.667-128-.667-192 0-14.5 1.167-22.333 9-23.5 23.5a214.134 214.134 0 0 0 1 39c3.459 10.286 10.625 15.953 21.5 17a73.133 73.133 0 0 1 1 17c-9.722.111-16.889 4.444-21.5 13a71.989 71.989 0 0 0-2.5 18c-22.003.167-44.002 0-66-.5-29.536-9.562-41.703-29.729-36.5-60.5 9.663-25.268 28.163-37.101 55.5-35.5 4.724-2.435 6.224-6.269 4.5-11.5-12.35-35.282-3.85-64.449 25.5-87.5 33.493-19.335 64.66-16.169 93.5 9.5l7.5 9.5c5.42 2.856 9.587 1.689 12.5-3.5 7.497-41.497 31.33-68.664 71.5-81.5 24.205-5.595 47.205-2.762 69 8.5z"/><path style="opacity:.042" d="M64.5 35.5c.667 0 1 .333 1 1 1.5 2.01 1 3.342-1.5 4-7.772-5.221-8.272-4.388-1.5 2.5-1.417 2.826-2.917 2.993-4.5.5.208 5.294-2.292 7.627-7.5 7 .627 5.208-1.706 7.708-7 7.5 1.112 2.108.446 3.608-2 4.5 0-.667-.333-1-1-1-1-1.667-2.333-3-4-4 0-.667-.333-1-1-1 0-.667-.333-1-1-1 .892-2.446 2.392-3.112 4.5-2 .365-4.72 2.698-6.72 7-6 .032-5.032 2.532-7.865 7.5-8.5l-1-1a14.505 14.505 0 0 0 4-5c3.11-.612 5.777.22 8 2.5zm-14 7c2.291 1.042 3.291 2.542 3 4.5-3.227-.056-4.227-1.556-3-4.5zm-3 6c.79.283 1.456.783 2 1.5-1.537 1.11-2.203 2.61-2 4.5-2.614.223-4.28-.944-5-3.5 2.153-.1 3.82-.933 5-2.5z"/><path style="opacity:.034" d="M483.5 32.5c1.495-.085 2.495.581 3 2-.82 1.611-2.154 2.278-4 2-.067-1.459.266-2.792 1-4z"/><path style="opacity:.043" d="M234.5 48.5c0-.667-.333-1-1-1 0-.667-.333-1-1-1 0-.667-.333-1-1-1 0-.667-.333-1-1-1 0-.667-.333-1-1-1 0-.667-.333-1-1-1 0-.667-.333-1-1-1 4.427-7.935 9.094-7.935 14 0-.333 1-1 1.667-2 2a19.897 19.897 0 0 1-4-3.5c-1.135-.75-2.135-.583-3 .5a38.918 38.918 0 0 0 5 5.5 10.51 10.51 0 0 1-3 2.5zM117.5 38.5c.667 0 1 .333 1 1 .667 0 1 .333 1 1 1.163 5.834-1.171 8.5-7 8 .667 5.333-1.667 7.667-7 7-5.533-4.1-5.199-7.767 1-11 .951.826 1.951.992 3 .5-.924-6.23 1.742-8.396 8-6.5zm-5 2c1.978.644 3.311 1.978 4 4-2.549 1.331-4.216.498-5-2.5.556-.383.889-.883 1-1.5zm-3 6c.789.283 1.456.783 2 1.5a14.743 14.743 0 0 0-3 4.5 6.544 6.544 0 0 1-3-3c1.684-.65 3.017-1.65 4-3z"/><path style="opacity:.03" d="M225.5 41.5c-.667 0-1 .333-1 1-2.186-.01-3.019-1.01-2.5-3 2.149-1.34 3.316-.673 3.5 2z"/><path style="opacity:.044" d="M-.5 40.5c4 1.667 4 3.333 0 5v-5z"/><path style="opacity:.041" d="M225.5 41.5h2c.667 0 1 .333 1 1 .667 0 1 .333 1 1 .667 0 1 .333 1 1 .667 0 1 .333 1 1 .667 0 1 .333 1 1 .667 0 1 .333 1 1 .667 0 1 .333 1 1a10.526 10.526 0 0 1-2.5 3c-3.112-2.6-5.612-5.6-7.5-9 .667 0 1-.333 1-1z"/><path style="opacity:1" fill="#010103" d="M327.5 48.5c42.035 2.442 68.202 24.109 78.5 65a100.168 100.168 0 0 1 1.5 14h-16c-2.26-34.435-20.26-55.601-54-63.5a50.442 50.442 0 0 0-10-.5v-15z"/><path style="opacity:.03" d="M33.5 49.5c3.808.939 3.808 2.272 0 4-2.294-1.125-2.294-2.459 0-4z"/><path style="opacity:.034" d="M227.5 50.5c1.495-.085 2.495.581 3 2-.82 1.611-2.154 2.278-4 2-.067-1.459.266-2.792 1-4z"/><path style="opacity:.03" d="M511.5 51.5v2c-.667 0-1 .333-1 1-3.361-.703-3.694-2.036-1-4 .683.363 1.35.696 2 1z"/><path style="opacity:.041" d="M95.5 54.5c3.285.59 3.618 1.756 1 3.5 7.718 2.129 7.885 4.962.5 8.5a30.05 30.05 0 0 1-6.5-6.5c.53-3.024 2.196-4.857 5-5.5zm2 7c2.501.01 2.668.678.5 2a2.428 2.428 0 0 1-.5-2z"/><path style="opacity:.014" d="M510.5 54.5h1v2c-.838-.342-1.172-1.008-1-2z"/><path style="opacity:.043" d="M34.5 55.5c.667 0 1 .333 1 1 .667 0 1 .333 1 1-.624 2.005.21 3.672 2.5 5 .383-.556.883-.89 1.5-1 .667 0 1 .333 1 1-.059 2.222-1.225 3.222-3.5 3a75.758 75.758 0 0 0-6.5-2.5 38.9 38.9 0 0 1 5 5.5c-.333 1-1 1.667-2 2a19.894 19.894 0 0 1-4-3.5c-1.135-.75-2.135-.583-3 .5a38.9 38.9 0 0 0 5 5.5c-.97 1.758-2.136 2.258-3.5 1.5-2.807 5.885-6.64 6.552-11.5 2-1.12-4.558.547-7.39 5-8.5a14.505 14.505 0 0 0 4-5l4-1c-1.934-2.271-1.934-4.271 0-6 1.46.355 2.793.189 4-.5zm-9 17a2.428 2.428 0 0 1 2 .5c-1.266 1.983-2.932 2.983-5 3a14.692 14.692 0 0 0 3-3.5z"/><path style="opacity:.034" d="M105.5 55.5c1.454 2.9.454 4.233-3 4-.412-2.473.588-3.806 3-4z"/><path style="opacity:.043" d="M511.5 66.5v4a6.846 6.846 0 0 1-4-1c-.552 1.503-.552 3.17 0 5a77.999 77.999 0 0 1-9-2.5c1.646 2.449 2.813 4.949 3.5 7.5-1.787.843-3.62 1.01-5.5.5 2.54 2.087 2.373 3.587-.5 4.5-5.252-3.245-6.418-2.245-3.5 3-1.12 2.096-2.62 2.43-4.5 1 .379 1.575.212 3.075-.5 4.5-3.789-.242-7.123-1.742-10-4.5 1.12-2.096 2.62-2.43 4.5-1 .492-1.049.326-2.049-.5-3 1.388-2.579 2.888-2.579 4.5 0 .507-1.496.007-2.663-1.5-3.5 2.182-2.775 4.848-3.775 8-3-1.017-1.05-1.184-2.216-.5-3.5a23.625 23.625 0 0 0 3.5-1 3.647 3.647 0 0 0-1-1.5 13.923 13.923 0 0 0 3-4c1.284-.684 2.451-.517 3.5.5-.379-1.575-.212-3.075.5-4.5h4c-1.349-1.635-1.182-3.135.5-4.5a481.653 481.653 0 0 0 5.5 7z"/><path style="opacity:.044" d="M79.5 80.5c1.564 5.773-.77 8.106-7 7 0-.667-.333-1-1-1 0-.667-.333-1-1-1 0-.667-.333-1-1-1-.524-5.305 1.643-7.638 6.5-7 .032-5.031 2.532-7.865 7.5-8.5a3.646 3.646 0 0 1-1-1.5 26.013 26.013 0 0 0 4-4.5c1.333-.667 2.667-.667 4 0l6 6c-1.093 1.365-2.426 1.699-4 1L88 65.5 86.5 67c2.912 1.858 4.412 4.358 4.5 7.5-1.147.958-2.147.625-3-1 .044 5.787-2.789 8.12-8.5 7zm1-8c2.291 1.042 3.291 2.542 3 4.5-3.227-.056-4.227-1.556-3-4.5zm-1 8a2.428 2.428 0 0 0-2 .5c-.566 4.228-2.232 4.394-5 .5a25.86 25.86 0 0 0 5-3c1.022.356 1.689 1.022 2 2z"/><path style="opacity:1" fill="#2383f5" d="M372.5 42.5c32.944 18.365 49.944 46.532 51 84.5.448 16.095-3.052 31.261-10.5 45.5a139.159 139.159 0 0 0-11.5 19 32.462 32.462 0 0 1-8-.5 102.26 102.26 0 0 0 13.5-21.5c18.262-50.631 6.762-92.965-34.5-127z"/><path style="opacity:.041" d="M17.5 76.5c1.46 2.894 2.294 5.894 2.5 9-.414.457-.914.79-1.5 1-2.48-1.576-5.146-2.576-8-3-2.521-3.491-1.521-4.491 3-3 .952-1.033.952-2.2 0-3.5 1.079-3.052 2.412-3.218 4-.5z"/><path style="opacity:.036" d="M63.5 79.5c2.64 1.294 2.64 2.627 0 4-2.294-1.125-2.294-2.459 0-4z"/><path style="opacity:.044" d="M69.5 84.5c.667 0 1 .333 1 1 .667 0 1 .333 1 1 .667 0 1 .333 1 1 2.654 2.072 2.32 3.739-1 5 0-.667-.333-1-1-1-1.333-2-3-3.667-5-5 0-.667-.333-1-1-1 1.261-3.32 2.928-3.654 5-1z"/><path style="opacity:.043" d="M10.5 83.5c1.644 1.98 3.31 3.98 5 6-.333 1-1 1.667-2 2a19.894 19.894 0 0 1-4-3.5c-1.135-.75-2.135-.583-3 .5a38.899 38.899 0 0 0 5 5.5 10.522 10.522 0 0 1-3 2.5c0-.667-.333-1-1-1 0-.667-.333-1-1-1 0-.667-.333-1-1-1 0-.667-.333-1-1-1 0-.667-.333-1-1-1 0-.667-.333-1-1-1 0-.667-.333-1-1-1a33.67 33.67 0 0 0 4-5.5c1.634-.493 3.3-.66 5-.5z"/><path style="opacity:.042" d="M64.5 85.5c.667 0 1 .333 1 1-.393 4.282 1.274 5.949 5 5 .667 0 1 .333 1 1 .086.996-.248 1.83-1 2.5l-5 1c1.341 1.826.841 2.993-1.5 3.5-7.772-5.221-8.272-4.388-1.5 2.5-1.066 2.012-2.4 2.512-4 1.5-.333-1-1-1.667-2-2 0-.667-.333-1-1-1 0-.667-.333-1-1-1-.453-.958-1.12-1.792-2-2.5a14.505 14.505 0 0 0 4-5 4.932 4.932 0 0 1 3-.5c.17-1.322-.163-2.489-1-3.5l2.5-2.5c1.145 1.184 2.312 1.184 3.5 0z"/><path style="opacity:.043" d="M-.5 89.5h2c.667 0 1 .333 1 1 .667 0 1 .333 1 1 .667 0 1 .333 1 1 .667 0 1 .333 1 1 .667 0 1 .333 1 1 .667 0 1 .333 1 1 .667 0 1 .333 1 1a10.52 10.52 0 0 1-2.5 3 54.552 54.552 0 0 0-6.5-6v-4z"/><path style="opacity:.041" d="M464.5 111.5c0-.667-.333-1-1-1 0-.667-.333-1-1-1a14.698 14.698 0 0 0-3-3.5 14.506 14.506 0 0 0 4-5 4.934 4.934 0 0 1 3-.5c.788-4.297 3.121-5.13 7-2.5 4.174 2.085 4.674 4.585 1.5 7.5-1.74-2.454-3.907-3.954-6.5-4.5a38.929 38.929 0 0 1 5 5.5 10.756 10.756 0 0 1-2.5 3 38.929 38.929 0 0 0-5.5-5c-1.021.502-1.188 1.168-.5 2l4.5 4.5-2.5 2.5c-.708-.881-1.542-1.547-2.5-2z"/><path style="opacity:.036" d="M-.5 101.5v-1c.958-.453 1.792-1.12 2.5-2 3.058 3.459 2.224 4.459-2.5 3z"/><path style="opacity:.044" d="M54.5 99.5c.667 0 1 .333 1 1 .667 0 1 .333 1 1l-1 2h3c-1.126 5.779-4.46 7.446-10 5 .172-.992-.162-1.658-1-2 .172-.992-.162-1.658-1-2 .858-4.756 3.525-6.423 8-5zm1 4c-.01 2.186-1.01 3.019-3 2.5a10.526 10.526 0 0 1 3-2.5z"/><path style="opacity:.041" d="M46.5 104.5c-.172.992.162 1.658 1 2-.172.992.162 1.658 1 2 .514 1.866 1.18 3.7 2 5.5a3.942 3.942 0 0 1-1 2l-8-2 3.5 3.5c.3 2.591-.866 3.425-3.5 2.5a19.885 19.885 0 0 0-4-3.5l-1 1a38.91 38.91 0 0 0 5 5.5l-2.5 2.5-7.5-7.5c2.035-3.368 4.701-6.035 8-8 1.399-.595 2.732-.428 4 .5.38-1.521.546-3.187.5-5 .67-.752 1.504-1.086 2.5-1z"/><path style="opacity:1" fill="#000102" d="M149.5 104.5h10v15c-17.412.904-29.912 9.237-37.5 25a36.229 36.229 0 0 0-2.5 15h-15c1.536-29.43 16.536-47.764 45-55z"/><path style="opacity:.043" d="M462.5 109.5c.667 0 1 .333 1 1 .667 0 1 .333 1 1 1.163 5.834-1.171 8.5-7 8 .667 5.333-1.667 7.667-7 7-5.533-4.101-5.199-7.767 1-11 .951.826 1.951.992 3 .5-.924-6.229 1.742-8.396 8-6.5zm-5 2c1.978.644 3.311 1.978 4 4-2.549 1.331-4.216.498-5-2.5.556-.383.889-.883 1-1.5zm-3 6c.789.283 1.456.783 2 1.5a14.748 14.748 0 0 0-3 4.5 6.547 6.547 0 0 1-3-3c1.684-.65 3.017-1.65 4-3z"/><path style="opacity:.01" d="M511.5 113.5v2c-1.333-.667-1.333-1.333 0-2z"/><path style="opacity:.03" d="M29.5 119.5c-.667 0-1 .333-1 1-2.186-.011-3.02-1.011-2.5-3 2.149-1.34 3.316-.673 3.5 2z"/><path style="opacity:.038" d="M511.5 117.5v4c-6.45-2.984-6.45-4.317 0-4z"/><path style="opacity:.042" d="M29.5 119.5c4.247 1.73 6.747 4.73 7.5 9l-1 1c-3.112-2.601-5.612-5.601-7.5-9 .667 0 1-.333 1-1zM-.5 157.5v-4c1.333-.333 1.333-.667 0-1v-3c.973-1.291 1.973-1.291 3 0 .473-4.604 3.14-6.437 8-5.5-2.585-3.76-1.585-5.093 3-4-1.377-2.54-.71-4.54 2-6 1.284-.684 2.45-.517 3.5.5v-4c1.425-.712 2.925-.879 4.5-.5-1.349-1.635-1.182-3.135.5-4.5 2.929 3.19 4.762 6.857 5.5 11a6.845 6.845 0 0 1-4-1c-.552 1.503-.552 3.169 0 5-3.018-.006-5.684-1.006-8-3l-1 1a64.538 64.538 0 0 1 4 6.5c-.608.87-1.441 1.37-2.5 1.5-1.162-.687-2.328-.853-3.5-.5.88 1.356 1.213 2.856 1 4.5-2.765-.298-5.265-1.298-7.5-3a31.19 31.19 0 0 0 2 7c-1.787.843-3.62 1.01-5.5.5 2.54 2.086 2.373 3.586-.5 4.5a27.648 27.648 0 0 1-4.5-2z"/><path style="opacity:.036" d="M450.5 126.5c1.476 1.73 1.142 3.063-1 4-2.694-1.963-2.361-3.297 1-4z"/><path style="opacity:.044" d="M494.5 141.5c0-.667-.333-1-1-1 0-.667-.333-1-1-1 0-.667-.333-1-1-1 0-.667-.333-1-1-1-.803-.923-.97-1.923-.5-3a125.726 125.726 0 0 0 7.5-7.5c1.333-.667 2.667-.667 4 0l6 6-2.5 2.5-6-6-1.5 1.5 6 6-2.5 2.5c-7.889-7.771-8.723-7.271-2.5 1.5-.859 3.015-2.192 3.181-4 .5z"/><path style="opacity:.036" d="M31.5 128.5c2.005.754 2.672 1.921 2 3.5-4.053.468-4.72-.698-2-3.5z"/><path style="opacity:.043" d="M490.5 137.5c.667 0 1 .333 1 1 .667 0 1 .333 1 1 .667 0 1 .333 1 1 .667 0 1 .333 1 1 .451 5.882-2.216 8.216-8 7 2.023 4.232.69 6.565-4 7-6.607-1.86-7.607-5.36-3-10.5 1.284-.684 2.451-.517 3.5.5-.745-5.754 1.755-8.421 7.5-8zm-4 4c2.181-.216 3.847.617 5 2.5-2.717 1.839-4.384 1.006-5-2.5zm0 7a2.428 2.428 0 0 0-2 .5c-.566 4.228-2.232 4.394-5 .5a25.866 25.866 0 0 0 5-3c1.022.355 1.689 1.022 2 2z"/><path style="opacity:.036" d="M56.5 145.5c2.64 1.294 2.64 2.627 0 4-2.294-1.125-2.294-2.459 0-4z"/><path style="opacity:.044" d="M61.5 149.5c.667 0 1 .333 1 1 .667 0 1 .333 1 1 .667 0 1 .333 1 1 .667 0 1 .333 1 1 .667 0 1 .333 1 1 .667 0 1 .333 1 1a10.51 10.51 0 0 1-2.5 3l-7.5-7.5c1.066-2.012 2.4-2.512 4-1.5z"/><path style="opacity:.042" d="M52.5 154.5c2.8 2.66 5.133 5.827 7 9.5-.608.87-1.441 1.37-2.5 1.5-1.162-.687-2.328-.853-3.5-.5.88 1.356 1.214 2.856 1 4.5-3.27-.384-6.103-1.718-8.5-4 .81 2.641 1.978 5.308 3.5 8-1.12 2.096-2.62 2.43-4.5 1-.492 1.049-.326 2.049.5 3-.387 1.22-1.22 1.887-2.5 2a14.768 14.768 0 0 1-5.5-3l-1 1c1.993 2.316 2.993 4.982 3 8a6.845 6.845 0 0 1-4-1c-.552 1.503-.552 3.169 0 5-4.143-.738-7.81-2.571-11-5.5 1.365-1.682 2.865-1.849 4.5-.5v-4c1.425-.712 2.925-.879 4.5-.5-1.377-2.54-.71-4.54 2-6 1.284-.684 2.45-.517 3.5.5-.379-1.575-.212-3.075.5-4.5 1.496-.507 2.663-.007 3.5 1.5.507-1.496.007-2.663-1.5-3.5a13.908 13.908 0 0 0 3-4 21.438 21.438 0 0 1 5 0c-2.584-3.76-1.584-5.093 3-4-1.228-1.49-1.228-2.99 0-4.5z"/><path style="opacity:.034" d="M477.5 156.5c2.412.194 3.412 1.527 3 4-3.454.233-4.454-1.1-3-4zM60.5 157.5c1.495-.085 2.495.581 3 2-.82 1.611-2.154 2.278-4 2-.067-1.459.266-2.792 1-4z"/><path style="opacity:.045" d="M511.5 174.5v4c-2.485.76-2.485 1.76 0 3v4c-4.578-1.343-6.078-4.343-4.5-9a9.175 9.175 0 0 1 4.5-2z"/><path style="opacity:1" fill="#00d5dd" d="M349.5 183.5a28.208 28.208 0 0 1 1.5 4 420.29 420.29 0 0 1 0 41l-1.5 3c-64.668.167-129.334 0-194-.5l-3.5-3.5c-.667-13-.667-26 0-39 .833-2.167 2.333-3.667 4.5-4.5 64.332-.5 128.666-.667 193-.5z"/><path style="opacity:1" fill="#00b2b9" d="M349.5 183.5c3.926-.453 7.092.88 9.5 4a400.05 400.05 0 0 1 0 40c-2.239 3.462-5.406 4.795-9.5 4l1.5-3a420.29 420.29 0 0 0 0-41 28.208 28.208 0 0 0-1.5-4z"/><path style="opacity:.041" d="M506.5 189.5c0 4.667-2.333 7-7 7-.667 0-1-.333-1-1 .695-1.937-.305-2.937-3-3-.832-3.997.668-6.664 4.5-8 2.122.72 2.622 1.887 1.5 3.5 1.747.352 3.414.852 5 1.5zm-5 2c2.501.011 2.668.678.5 2a2.428 2.428 0 0 1-.5-2z"/><path style="opacity:.034" d="M506.5 189.5c-.085-1.495.581-2.495 2-3 1.611.82 2.278 2.154 2 4-1.459.067-2.792-.266-4-1z"/><path style="opacity:.042" d="M4.5 214.5c-.672-.767-1.505-1.434-2.5-2-.708.881-1.542 1.547-2.5 2v-4c2.155 1.052 2.488.386 1-2 1.091-3.381 3.425-5.048 7-5a4.932 4.932 0 0 1 .5-3c2.64-2.395 5.14-4.895 7.5-7.5 4.238-.131 7.238 1.869 9 6-.13 1.059-.63 1.892-1.5 2.5-1.858-2.912-4.358-4.412-7.5-4.5 2.912 1.858 4.412 4.358 4.5 7.5l-1 1c-1.858-2.912-4.358-4.412-7.5-4.5 2.912 1.858 4.412 4.358 4.5 7.5-1.587 1.227-2.92.894-4-1 .438 5.058-2.062 7.391-7.5 7zm0-7c3.432-.252 4.432 1.081 3 4-1.788-.783-2.788-2.116-3-4z"/><path style="opacity:1" d="M167.5 199.5h16v16h-16v-16zM199.5 199.5h16v16h-16v-16zM231.5 199.5h16v16h-16v-16z"/><path style="opacity:.039" d="M4.5 214.5c1.538 4.584-.128 6.918-5 7v-3a14.52 14.52 0 0 1 5-4z"/><path style="opacity:1" fill="#000102" d="M431.5 216.5c18.944 1.444 29.611 11.61 32 30.5-5.323.499-10.656.666-16 .5-1-9.667-6.333-15-16-16v-15z"/><path style="opacity:1" fill="#2382f4" d="M449.5 202.5c30.284 16.692 37.784 40.692 22.5 72-4.92 7.361-11.42 12.695-19.5 16 3.331-3.5 6.498-7.166 9.5-11 16.254-29.245 12.088-54.911-12.5-77z"/><path style="opacity:.018" d="M511.5 232.5v4c-1.333-1.333-1.333-2.667 0-4z"/><path style="opacity:.04" d="M511.5 237.5v2c-4.469.036-5.469 1.536-3 4.5a4.934 4.934 0 0 0 3 .5v3a8.43 8.43 0 0 0-4 .5c1.112 2.108.446 3.608-2 4.5-.667 0-1-.333-1-1-1-1.667-2.333-3-4-4-.667 0-1-.333-1-1-.667 0-1-.333-1-1 .892-2.446 2.392-3.112 4.5-2 .631-5.384 3.465-7.384 8.5-6z"/><path style="opacity:1" fill="#fdea98" d="M175.5 247.5h16v16h-16v-16z"/><path style="opacity:1" fill="#56a3fd" d="M207.5 247.5h96v16h-96v-16z"/><path style="opacity:1" fill="#fce897" d="M319.5 247.5h16v16h-16v-16z"/><path style="opacity:1" fill="#00d5dd" d="M349.5 279.5a28.208 28.208 0 0 1 1.5 4 400.05 400.05 0 0 1 0 40 28.208 28.208 0 0 1-1.5 4c-64.668.167-129.334 0-194-.5l-3.5-3.5c-.667-13-.667-26 0-39 .833-2.167 2.333-3.667 4.5-4.5 64.332-.5 128.666-.667 193-.5z"/><path style="opacity:1" fill="#00b3ba" d="M349.5 279.5c3.926-.453 7.092.88 9.5 4a400.05 400.05 0 0 1 0 40c-2.239 3.462-5.406 4.795-9.5 4a28.208 28.208 0 0 0 1.5-4 400.05 400.05 0 0 0 0-40 28.208 28.208 0 0 0-1.5-4z"/><path style="opacity:.043" d="M511.5 296.5v9c-1.994-.85-3.994-1.35-6-1.5a25.513 25.513 0 0 1 4 4.5c-.333 1-1 1.667-2 2a19.887 19.887 0 0 1-4-3.5c-1.135-.749-2.135-.583-3 .5a38.929 38.929 0 0 0 5 5.5l-2.5 2.5-7.5-7.5c2.035-3.368 4.701-6.035 8-8 1.399-.595 2.732-.428 4 .5.069-1.778.403-3.611 1-5.5 1.288-.239 2.288.261 3 1.5z"/><path style="opacity:1" d="M167.5 295.5h16v16h-16v-16zM199.5 295.5h16v16h-16v-16zM231.5 295.5h16v16h-16v-16z"/><path style="opacity:.03" d="M15.5 305.5c3.808.939 3.808 2.272 0 4-2.294-1.125-2.294-2.459 0-4zM493.5 309.5c-.667 0-1 .333-1 1-2.186-.011-3.019-1.011-2.5-3 2.149-1.34 3.316-.673 3.5 2z"/><path style="opacity:.041" d="M493.5 309.5c3.399 1.888 6.399 4.388 9 7.5l-2.5 2.5c-3.112-2.601-5.612-5.601-7.5-9 .667 0 1-.333 1-1z"/><path style="opacity:.043" d="M16.5 311.5c.667 0 1 .333 1 1-.393 4.282 1.274 5.949 5 5 .667 0 1 .333 1 1 .086.996-.248 1.829-1 2.5l-5 1c1.321 1.545.988 2.711-1 3.5a19.885 19.885 0 0 1-4-3.5c-1.135-.749-2.135-.583-3 .5a38.91 38.91 0 0 0 5 5.5c-1.066 2.012-2.4 2.512-4 1.5-.062 5.523-2.729 7.356-8 5.5a10.527 10.527 0 0 0-3-2.5v-6a24.018 24.018 0 0 1 6-2.5l-1-1a11.529 11.529 0 0 0 3.5-4.5c1.011-.837 2.178-1.17 3.5-1 .17-1.322-.163-2.489-1-3.5l2.5-2.5c1.146 1.184 2.312 1.184 3.5 0zm-6 18c-7.012 4.244-7.512 3.577-1.5-2 .717.544 1.217 1.211 1.5 2zM487.5 315.5c3.308 2.95 5.308 6.616 6 11a6.846 6.846 0 0 1-4-1c-.552 1.503-.552 3.169 0 5a78.1 78.1 0 0 1-9-2.5c1.646 2.449 2.813 4.949 3.5 7.5-1.787.843-3.62 1.01-5.5.5 2.54 2.086 2.373 3.586-.5 4.5-5.252-3.245-6.418-2.245-3.5 3-1.12 2.096-2.62 2.43-4.5 1 .379 1.575.212 3.075-.5 4.5-3.789-.242-7.123-1.742-10-4.5 1.12-2.096 2.62-2.43 4.5-1 .492-1.049.326-2.049-.5-3 1.388-2.579 2.888-2.579 4.5 0 .507-1.496.007-2.663-1.5-3.5 2.182-2.775 4.848-3.775 8-3-1.017-1.049-1.184-2.216-.5-3.5a23.577 23.577 0 0 0 3.5-1 3.647 3.647 0 0 0-1-1.5 6.978 6.978 0 0 0 2.5-3.5c1.333-1.333 2.667-1.333 4 0v-4c1.425-.712 2.925-.879 4.5-.5-1.228-1.49-1.228-2.99 0-4.5z"/><path style="opacity:.045" d="M72.5 317.5c.667 0 1 .333 1 1 .667 0 1 .333 1 1 .333 1 1 1.667 2 2 .667 0 1 .333 1 1 1.28 1.606.78 2.606-1.5 3a21.376 21.376 0 0 1-6-5l-1.5 1.5a21.368 21.368 0 0 1 5 6c-.13 1.059-.63 1.892-1.5 2.5a14.696 14.696 0 0 0-3.5-3c0-.667-.333-1-1-1-1.609-1.398-2.442-3.065-2.5-5 1.69-2.859 4.19-4.192 7.5-4z"/><path style="opacity:.036" d="M495.5 318.5c2.005.754 2.672 1.921 2 3.5-4.053.468-4.72-.698-2-3.5z"/><path style="opacity:.892" d="M421.5 392.5c0 .667.333 1 1 1 1.5 2.009 1 3.342-1.5 4-1.944-.939-3.611-2.273-5-4-.269 2.78.898 4.946 3.5 6.5-.969 1.758-2.136 2.258-3.5 1.5a420.29 420.29 0 0 0 0 41 33.205 33.205 0 0 1 5.5 0c0 .667.333 1 1 1-.624 2.005.21 3.672 2.5 5 .383-.556.883-.889 1.5-1 0 .667.333 1 1 1 .016 1.984-.984 2.984-3 3-2.228-.719-4.061-2.052-5.5-4l-1.5 1.5a38.929 38.929 0 0 1 5 5.5c3.333 1.333 6.667 1.333 10 0 6.663-17.503 19.33-25.003 38-22.5 7.517 1.674 13.684 5.508 18.5 11.5.718-.951 1.551-1.117 2.5-.5.55 4.052 1.717 8.218 3.5 12.5 2.167 28.5-11 41.667-39.5 39.5-3.005-1.17-6.005-2.336-9-3.5-4.027 4.84-8.36 5.174-13 1-.654-4.183 1.012-7.016 5-8.5a37.838 37.838 0 0 1-6-11.5 100.54 100.54 0 0 0-28 0 67.254 67.254 0 0 0-10-4.5c1.153-1.883 2.819-2.716 5-2.5a529.493 529.493 0 0 0-1-46c0-.667-.333-1-1-1-1-1.667-2.333-3-4-4 0-.667-.333-1-1-1 0-.667-.333-1-1-1 .892-2.446 2.392-3.112 4.5-2 .113-2.474 1.113-4.474 3-6a484.008 484.008 0 0 0 0-44c-1.734 1.951-3.901 2.951-6.5 3-.667 0-1-.333-1-1 .453-.958 1.119-1.792 2-2.5-.949-.617-1.782-.451-2.5.5-3.578-3.773-2.911-6.773 2-9 2.122.72 2.622 1.887 1.5 3.5 1.601.273 3.101.773 4.5 1.5.5-9.661.666-19.328.5-29 5.676.166 11.343-.001 17-.5 4.28-6.069 8.447-5.902 12.5.5.699 1.574.365 2.907-1 4-1.858-2.912-4.358-4.412-7.5-4.5l4.5 4.5c.699 1.574.365 2.907-1 4-1.858-2.912-4.358-4.412-7.5-4.5a21.365 21.365 0 0 1 5 6c-1.093 3.12-2.593 3.287-4.5.5.57 2.193.236 4.193-1 6a353.238 353.238 0 0 0 .5 46 18.67 18.67 0 0 1 5 3zm-27-34c2.501.011 2.668.678.5 2a2.428 2.428 0 0 1-.5-2zm42 78c-2.162.397-3.495 1.731-4 4a6.547 6.547 0 0 1-3-3 14.748 14.748 0 0 0 4.5-3c.995.566 1.828 1.233 2.5 2zm-14 7c1.667 1 3 2.333 4 4-.617.111-1.117.444-1.5 1-2.29-1.328-3.124-2.995-2.5-5zm-7 9c3.56 1.783 3.56 2.783 0 3v-3z"/><path style="opacity:.043" d="M67.5 326.5c.667 0 1 .333 1 1 2.551 6.783.218 9.783-7 9 1.564 5.773-.77 8.106-7 7 0-.667-.333-1-1-1 0-.667-.333-1-1-1 0-.667-.333-1-1-1-.524-5.304 1.643-7.638 6.5-7 .302-6.488 3.468-8.821 9.5-7zm-5 2c2.291 1.042 3.291 2.542 3 4.5-3.227-.056-4.227-1.556-3-4.5zm-1 8a2.429 2.429 0 0 0-2 .5c-.566 4.228-2.232 4.394-5 .5a25.86 25.86 0 0 0 5-3c1.022.355 1.689 1.022 2 2z"/><path style="opacity:.036" d="M-.5 334.5c1.36 1.546 2.36 3.38 3 5.5-.248 1.749-1.248 2.582-3 2.5v-8zM45.5 335.5c2.64 1.294 2.64 2.627 0 4-2.294-1.125-2.294-2.459 0-4z"/><path style="opacity:.044" d="M51.5 340.5c.667 0 1 .333 1 1 .667 0 1 .333 1 1 .667 0 1 .333 1 1 2.654 2.072 2.32 3.739-1 5 0-.667-.333-1-1-1-1.333-2-3-3.667-5-5 0-.667-.333-1-1-1 1.261-3.32 2.928-3.654 5-1z"/><path style="opacity:.042" d="M46.5 341.5c.667 0 1 .333 1 1-.393 4.282 1.274 5.949 5 5 .667 0 1 .333 1 1 .086.996-.248 1.829-1 2.5l-5 1c1.341 1.826.841 2.993-1.5 3.5-7.772-5.221-8.272-4.388-1.5 2.5-1.066 2.012-2.4 2.512-4 1.5-.333-1-1-1.667-2-2 0-.667-.333-1-1-1 0-.667-.333-1-1-1-.453-.958-1.12-1.792-2-2.5a14.505 14.505 0 0 0 4-5 4.934 4.934 0 0 1 3-.5c.17-1.322-.163-2.489-1-3.5l2.5-2.5c1.145 1.184 2.312 1.184 3.5 0z"/><path style="opacity:.034" d="M113.5 344.5c-.085-1.495.581-2.495 2-3 1.611.82 2.278 2.154 2 4-1.459.067-2.792-.266-4-1z"/><path style="opacity:1" fill="#feeb98" d="M175.5 343.5h16v16h-16v-16z"/><path style="opacity:1" fill="#fde997" d="M319.5 343.5h16v16h-16v-16z"/><path style="opacity:.041" d="M446.5 367.5c0-.667-.333-1-1-1 0-.667-.333-1-1-1a14.698 14.698 0 0 0-3-3.5 14.506 14.506 0 0 0 4-5 4.934 4.934 0 0 1 3-.5c.788-4.297 3.121-5.13 7-2.5 4.174 2.085 4.674 4.585 1.5 7.5-1.74-2.454-3.907-3.954-6.5-4.5a38.929 38.929 0 0 1 5 5.5 10.756 10.756 0 0 1-2.5 3 38.929 38.929 0 0 0-5.5-5c-1.021.502-1.188 1.168-.5 2l4.5 4.5-2.5 2.5c-.708-.881-1.542-1.547-2.5-2z"/><path style="opacity:.042" d="M511.5 352.5v4c-2.687-.561-2.687.106 0 2v7c-2.837-1.672-3.504-1.006-2 2-.387 1.22-1.22 1.887-2.5 2a14.766 14.766 0 0 1-5.5-3l-1 1c1.994 2.316 2.994 4.982 3 8a6.846 6.846 0 0 1-4-1c-.552 1.503-.552 3.169 0 5-4.143-.738-7.81-2.571-11-5.5 1.365-1.682 2.865-1.849 4.5-.5v-4c1.425-.712 2.925-.879 4.5-.5-1.376-2.54-.71-4.54 2-6 1.284-.684 2.451-.517 3.5.5-.379-1.575-.212-3.075.5-4.5 1.496-.507 2.663-.007 3.5 1.5.507-1.496.007-2.663-1.5-3.5 1.614-2.127 3.614-3.627 6-4.5z"/><path style="opacity:.036" d="M264.5 353.5c2.64 1.294 2.64 2.627 0 4-2.294-1.125-2.294-2.459 0-4z"/><path style="opacity:.044" d="M36.5 355.5c.667 0 1 .333 1 1 .667 0 1 .333 1 1l-1 2h3c-1.126 5.779-4.46 7.446-10 5 .172-.992-.162-1.658-1-2 .172-.992-.162-1.658-1-2 .858-4.756 3.525-6.423 8-5zm1 4c-.01 2.186-1.01 3.019-3 2.5a10.526 10.526 0 0 1 3-2.5z"/><path style="opacity:.041" d="M28.5 360.5c-.172.992.162 1.658 1 2-.172.992.162 1.658 1 2 .514 1.866 1.18 3.7 2 5.5a3.942 3.942 0 0 1-1 2l-8-2 3.5 3.5c.3 2.591-.866 3.425-3.5 2.5a19.885 19.885 0 0 0-4-3.5l-1 1a38.91 38.91 0 0 0 5 5.5l-2.5 2.5-7.5-7.5c2.035-3.368 4.701-6.035 8-8 1.399-.595 2.732-.428 4 .5.38-1.521.546-3.187.5-5 .67-.752 1.504-1.086 2.5-1z"/><path style="opacity:.043" d="M444.5 365.5c.667 0 1 .333 1 1 .667 0 1 .333 1 1 1.163 5.834-1.171 8.5-7 8-.815 6.286-3.981 7.62-9.5 4-2.217-4.242-1.05-7.242 3.5-9a3.647 3.647 0 0 1 1.5 1c.782-5.968 3.949-7.968 9.5-6zm-5 2c1.978.644 3.311 1.978 4 4-2.549 1.331-4.216.498-5-2.5.556-.383.889-.883 1-1.5zm-4 6c.876-.131 1.543.202 2 1-.913 4.914-2.58 5.247-5 1a44.093 44.093 0 0 0 3-2z"/><path style="opacity:.03" d="M77.5 368.5c-.667 0-1 .333-1 1-2.186-.011-3.02-1.011-2.5-3 2.149-1.34 3.316-.673 3.5 2z"/><path style="opacity:.042" d="M77.5 368.5c1.562.233 2.895.9 4 2 .667 0 1 .333 1 1a20.958 20.958 0 0 1 3 4.5c-.394 2.28-1.394 2.78-3 1.5 0-.667-.333-1-1-1-1-1.667-2.333-3-4-4 0-.667-.333-1-1-1v-2c.667 0 1-.333 1-1z"/><path style="opacity:.041" d="M76.5 371.5c.667 0 1 .333 1 1-.624 2.005.21 3.672 2.5 5 .383-.556.883-.889 1.5-1 .667 0 1 .333 1 1-.059 2.222-1.225 3.222-3.5 3-7.237-4.393-7.904-3.726-2 2 .483.948.65 1.948.5 3-3.114-.591-5.614-2.258-7.5-5l-1.5 1.5c2.912 1.858 4.412 4.358 4.5 7.5-2.386 1.263-4.22 3.097-5.5 5.5-2.847.944-5.347.444-7.5-1.5-.004 1.868.496 3.702 1.5 5.5-.114 1.28-.78 2.113-2 2.5l-10-5c1.466-2.157 3.3-2.49 5.5-1a21.405 21.405 0 0 1 0-5c1.395-1.315 2.395-.981 3 1 .31-4.141 2.477-6.475 6.5-7 .739-3.908 3.072-6.408 7-7.5-2.716-2.793-2.382-4.96 1-6.5 1.36.288 2.694.621 4 1zm-7 18h-2c.286-2.433.952-2.433 2 0z"/><path style="opacity:.03" d="M11.5 375.5c-.667 0-1 .333-1 1-2.186-.011-3.02-1.011-2.5-3 2.149-1.34 3.316-.673 3.5 2z"/><path style="opacity:.042" d="M11.5 375.5c4.247 1.73 6.747 4.73 7.5 9l-1 1c-3.112-2.601-5.612-5.601-7.5-9 .667 0 1-.333 1-1z"/><path style="opacity:1" fill="#00d5dd" d="m349.5 375.5 1.5 3a420.29 420.29 0 0 1 0 41 28.208 28.208 0 0 1-1.5 4c-64.668.167-129.334 0-194-.5l-3.5-3.5c-.667-13-.667-26 0-39 .833-2.167 2.333-3.667 4.5-4.5 64.332-.5 128.666-.667 193-.5z"/><path style="opacity:.043" d="M-.5 393.5v-4c.617.111 1.117.444 1.5 1-.379-1.575-.212-3.075.5-4.5h4c-1.349-1.635-1.182-3.135.5-4.5 2.929 3.19 4.762 6.857 5.5 11a6.845 6.845 0 0 1-4-1c-.552 1.503-.552 3.169 0 5-3.035-.039-5.702-1.039-8-3z"/><path style="opacity:.042" d="M422.5 393.5c-.667 0-1-.333-1-1 .453-.958 1.119-1.792 2-2.5-.949-.617-1.782-.451-2.5.5-3.578-3.773-2.911-6.773 2-9 2.122.72 2.622 1.887 1.5 3.5 4.137-.203 5.637 1.63 4.5 5.5-1.734 1.951-3.901 2.951-6.5 3zm2-5c2.501.011 2.668.678.5 2a2.428 2.428 0 0 1-.5-2z"/><path style="opacity:.036" d="M430.5 382.5c3.361.703 3.694 2.037 1 4-2.142-.937-2.476-2.27-1-4z"/><path style="opacity:.044" d="M476.5 397.5c0-.667-.333-1-1-1 0-.667-.333-1-1-1 0-.667-.333-1-1-1 0-.667-.333-1-1-1-.803-.923-.97-1.923-.5-3a125.726 125.726 0 0 0 7.5-7.5c1.333-.667 2.667-.667 4 0l6 6-2.5 2.5-6-6-1.5 1.5 6 6-2.5 2.5c-7.889-7.771-8.723-7.271-2.5 1.5-.859 3.015-2.192 3.181-4 .5z"/><path style="opacity:.036" d="M13.5 384.5c2.005.754 2.672 1.921 2 3.5-4.053.468-4.72-.698-2-3.5z"/><path style="opacity:1" d="M167.5 391.5h16v16h-16v-16zM199.5 391.5h16v16h-16v-16zM231.5 391.5h16v16h-16v-16z"/><path style="opacity:.043" d="M472.5 393.5c.667 0 1 .333 1 1 .667 0 1 .333 1 1 .667 0 1 .333 1 1 .667 0 1 .333 1 1 .451 5.882-2.216 8.216-8 7 2.023 4.232.69 6.565-4 7-6.607-1.86-7.607-5.36-3-10.5 1.284-.684 2.451-.517 3.5.5-.745-5.754 1.755-8.421 7.5-8zm-4 4c2.181-.216 3.847.617 5 2.5-2.717 1.839-4.384 1.006-5-2.5zm0 7a2.428 2.428 0 0 0-2 .5c-.566 4.228-2.232 4.394-5 .5a25.866 25.866 0 0 0 5-3c1.022.355 1.689 1.022 2 2z"/><path style="opacity:.038" d="M-.5 396.5a29.06 29.06 0 0 1 3 4.5c-.744 1.039-1.744 1.539-3 1.5v-6z"/><path style="opacity:.041" d="M49.5 411.5c0-.667-.333-1-1-1 0-.667-.333-1-1-1 0-.667-.333-1-1-1 0-.667-.333-1-1-1 0-.667-.333-1-1-1 0-.667-.333-1-1-1 2.8-8.405 6.967-9.071 12.5-2 .483.948.65 1.948.5 3-3.114-.591-5.614-2.258-7.5-5l-1.5 1.5a21.368 21.368 0 0 1 5 6c-.248 1.749-1.248 2.582-3 2.5z"/><path style="opacity:1" fill="#00b2b8" d="M349.5 375.5c3.926-.453 7.092.88 9.5 4a400.05 400.05 0 0 1 0 40c-2.239 3.462-5.406 4.795-9.5 4a28.208 28.208 0 0 0 1.5-4 420.29 420.29 0 0 0 0-41l-1.5-3z"/><path style="opacity:.036" d="M38.5 401.5c2.64 1.294 2.64 2.627 0 4-2.294-1.125-2.294-2.459 0-4z"/><path style="opacity:.044" d="M43.5 405.5c.667 0 1 .333 1 1 .667 0 1 .333 1 1 .667 0 1 .333 1 1 .667 0 1 .333 1 1 .667 0 1 .333 1 1 .667 0 1 .333 1 1a10.51 10.51 0 0 1-2.5 3l-7.5-7.5c1.066-2.012 2.4-2.512 4-1.5z"/><path style="opacity:.03" d="M390.5 406.5c3.808.939 3.808 2.272 0 4-2.294-1.125-2.294-2.459 0-4z"/><path style="opacity:.042" d="M34.5 410.5c2.8 2.66 5.133 5.827 7 9.5-.608.87-1.441 1.37-2.5 1.5-1.162-.687-2.328-.853-3.5-.5.88 1.356 1.214 2.856 1 4.5-3.27-.384-6.103-1.718-8.5-4 .81 2.641 1.978 5.308 3.5 8-1.12 2.096-2.62 2.43-4.5 1-.492 1.049-.326 2.049.5 3-.387 1.22-1.22 1.887-2.5 2a14.768 14.768 0 0 1-5.5-3l-1 1c1.994 2.316 2.994 4.982 3 8a6.845 6.845 0 0 1-4-1c-.552 1.503-.552 3.169 0 5-4.143-.738-7.81-2.571-11-5.5 1.365-1.682 2.865-1.849 4.5-.5v-4c1.425-.712 2.925-.879 4.5-.5-1.377-2.54-.71-4.54 2-6 1.284-.684 2.45-.517 3.5.5-.379-1.575-.212-3.075.5-4.5 1.496-.507 2.663-.007 3.5 1.5.507-1.496.007-2.663-1.5-3.5a13.908 13.908 0 0 0 3-4 21.438 21.438 0 0 1 5 0c-2.584-3.76-1.584-5.093 3-4-1.228-1.49-1.228-2.99 0-4.5z"/><path style="opacity:.041" d="M458.5 415.5c0 4.667-2.333 7-7 7 0-.667-.333-1-1-1 .695-1.937-.305-2.937-3-3-.832-3.997.668-6.664 4.5-8 2.122.72 2.622 1.887 1.5 3.5 1.747.352 3.414.852 5 1.5zm-5 2c2.501.011 2.668.678.5 2a2.428 2.428 0 0 1-.5-2z"/><path style="opacity:.042" d="M511.5 411.5v4c-2.433.286-2.433.952 0 2v5a10.515 10.515 0 0 1-3-2.5c-1-.667-2-.667-3 0a21.365 21.365 0 0 1 5 6c-1.248 3.073-2.915 3.24-5 .5 0-.667-.333-1-1-1 0-.667-.333-1-1-1-1.613-1.338-2.113-3.005-1.5-5a101.016 101.016 0 0 1 9.5-8z"/><path style="opacity:.043" d="M391.5 412.5c.667 0 1 .333 1 1 .667 0 1 .333 1 1-.624 2.005.21 3.672 2.5 5 .383-.556.883-.889 1.5-1 .667 0 1 .333 1 1 .086.996-.248 1.829-1 2.5l-5 1c1.321 1.545.988 2.711-1 3.5a19.887 19.887 0 0 1-4-3.5c-1.135-.749-2.135-.583-3 .5a38.929 38.929 0 0 0 5 5.5c-1.066 2.012-2.4 2.512-4 1.5-.062 5.523-2.729 7.356-8 5.5a10.515 10.515 0 0 0-3-2.5c-1.309-5.189.691-8.022 6-8.5l-1-1a14.506 14.506 0 0 0 4-5 4.934 4.934 0 0 1 3-.5c.17-1.322-.163-2.489-1-3.5a10.756 10.756 0 0 1 3-2.5c1.027 1.291 2.027 1.291 3 0zm-6 18c-7.012 4.244-7.512 3.577-1.5-2 .717.544 1.217 1.211 1.5 2z"/><path style="opacity:.034" d="M458.5 415.5c-.085-1.495.581-2.495 2-3 1.611.82 2.278 2.154 2 4-1.459.067-2.792-.266-4-1zM42.5 413.5c1.495-.085 2.495.581 3 2-.82 1.611-2.154 2.278-4 2-.067-1.459.266-2.792 1-4z"/><path style="opacity:.043" d="M447.5 418.5a6.547 6.547 0 0 0 3 3c.667 0 1 .333 1 1 1.476 1.73 1.142 3.063-1 4a19.887 19.887 0 0 1-4-3.5c-1.135-.749-2.135-.583-3 .5a38.929 38.929 0 0 0 5 5.5c-1.417 2.826-2.917 2.993-4.5.5.438 5.058-2.062 7.391-7.5 7 .263 6.7-2.737 8.7-9 6 0-.667-.333-1-1-1-1.686-4.298-.353-7.298 4-9l2 1c-.478-4.784 1.855-7.617 7-8.5l-1-1a14.506 14.506 0 0 0 4-5 12.93 12.93 0 0 1 5-.5zm-11 11c3.432-.252 4.432 1.081 3 4-1.788-.783-2.788-2.116-3-4zm0 7c-.672-.767-1.505-1.434-2.5-2a14.748 14.748 0 0 1-4.5 3 6.547 6.547 0 0 0 3 3c.505-2.269 1.838-3.603 4-4z"/><path style="opacity:.042" d="M88.5 421.5c1.46 2.894 2.294 5.894 2.5 9a3.647 3.647 0 0 1-1.5 1c-7.216-4.585-8.216-3.918-3 2-.333 1-1 1.667-2 2a19.885 19.885 0 0 1-4-3.5c-1.135-.749-2.135-.583-3 .5a38.91 38.91 0 0 0 5 5.5l-2.5 2.5-7.5-7.5c2.035-3.368 4.701-6.035 8-8 1.612-.72 3.112-.554 4.5.5-.51-1.88-.343-3.713.5-5.5 1.288-.239 2.288.261 3 1.5z"/><path style="opacity:.043" d="M503.5 424.5c.667 0 1 .333 1 1 .667 0 1 .333 1 1 1.384 5.628-.949 8.295-7 8 1.514 5.983-.819 8.15-7 6.5-4.406-4.39-3.906-7.89 1.5-10.5 2.52 1.322 3.02.655 1.5-2 1.702-4.353 4.702-5.686 9-4zm-5 3c3.432-.252 4.432 1.081 3 4-1.788-.783-2.788-2.116-3-4zm0 7c-2.162.397-3.495 1.731-4 4a6.547 6.547 0 0 1-3-3 14.748 14.748 0 0 0 4.5-3c.995.566 1.828 1.233 2.5 2zM135.5 430.5c.667 0 1 .333 1 1-.393 4.282 1.274 5.949 5 5 .667 0 1 .333 1 1 .086.996-.248 1.829-1 2.5l-5 1c1.321 1.545.988 2.711-1 3.5a19.887 19.887 0 0 1-4-3.5c-1.135-.749-2.135-.583-3 .5a38.929 38.929 0 0 0 5 5.5c-1.066 2.012-2.4 2.512-4 1.5-.062 5.523-2.729 7.356-8 5.5a10.515 10.515 0 0 0-3-2.5c-1.362-5.287.638-7.954 6-8-.111-.617-.444-1.117-1-1.5a11.532 11.532 0 0 0 3.5-4.5c1.011-.837 2.178-1.17 3.5-1 .17-1.322-.163-2.489-1-3.5l2.5-2.5c1.145 1.184 2.312 1.184 3.5 0zm-6 18c-.283-.789-.783-1.456-1.5-2-6.012 5.577-5.512 6.244 1.5 2z"/><path style="opacity:.03" d="M70.5 434.5c-.667 0-1 .333-1 1-2.186-.011-3.02-1.011-2.5-3 2.149-1.34 3.316-.673 3.5 2z"/><path style="opacity:.042" d="M374.5 433.5c1.461 2.894 2.294 5.894 2.5 9a3.647 3.647 0 0 1-1.5 1c-7.216-4.585-8.216-3.918-3 2-.333 1-1 1.667-2 2a19.887 19.887 0 0 1-4-3.5c-1.135-.749-2.135-.583-3 .5a38.929 38.929 0 0 0 5 5.5l-2.5 2.5-7.5-7.5c2.035-3.368 4.701-6.035 8-8 1.399-.595 2.732-.428 4 .5.069-1.778.403-3.611 1-5.5 1.288-.239 2.288.261 3 1.5z"/><path style="opacity:.041" d="M70.5 434.5c3.4 1.888 6.4 4.388 9 7.5l-2.5 2.5c-3.112-2.601-5.612-5.601-7.5-9 .667 0 1-.333 1-1z"/><path style="opacity:.03" d="M422.5 439.5c-.667 0-1 .333-1 1-2.186-.011-3.019-1.011-2.5-3 2.149-1.34 3.316-.673 3.5 2z"/><path style="opacity:.042" d="M422.5 439.5c1.562.233 2.895.9 4 2 .667 0 1 .333 1 1a20.987 20.987 0 0 1 3 4.5c-.394 2.28-1.394 2.78-3 1.5-.667 0-1-.333-1-1-1-1.667-2.333-3-4-4-.667 0-1-.333-1-1v-2c.667 0 1-.333 1-1z"/><path style="opacity:.043" d="M247.5 442.5c.667 0 1 .333 1 1 .667 0 1 .333 1 1 1.384 5.628-.949 8.295-7 8 1.514 5.983-.819 8.15-7 6.5-4.406-4.39-3.906-7.89 1.5-10.5 2.52 1.322 3.02.655 1.5-2 1.702-4.353 4.702-5.686 9-4zm-5 3c.212 1.884 1.212 3.217 3 4 1.432-2.919.432-4.252-3-4zm0 7c-.672-.767-1.505-1.434-2.5-2a14.748 14.748 0 0 1-4.5 3 6.547 6.547 0 0 0 3 3c.505-2.269 1.838-3.603 4-4z"/><path style="opacity:.03" d="M356.5 446.5c-.667 0-1 .333-1 1-2.186-.011-3.019-1.011-2.5-3 2.149-1.34 3.316-.673 3.5 2z"/><path style="opacity:.041" d="M356.5 446.5c3.399 1.888 6.399 4.388 9 7.5l-2.5 2.5c-3.112-2.601-5.612-5.601-7.5-9 .667 0 1-.333 1-1z"/><path style="opacity:.043" d="M-.5 447.5c3.108 1.273 5.441 3.439 7 6.5-.13 1.059-.63 1.892-1.5 2.5a38.47 38.47 0 0 0-5.5-5v-4z"/><path style="opacity:1" fill="#f7e494" d="M42.5 447.5c16.641-.195 23.141 7.805 19.5 24-4.963 7.214-11.797 9.714-20.5 7.5-10.123-5.763-12.623-13.929-7.5-24.5 2.441-2.954 5.275-5.287 8.5-7z"/><path style="opacity:1" fill="#f7e394" d="M458.5 447.5c16.641-.195 23.141 7.805 19.5 24-4.963 7.214-11.797 9.714-20.5 7.5-10.123-5.763-12.623-13.929-7.5-24.5 2.441-2.954 5.275-5.287 8.5-7z"/><path style="opacity:.043" d="M350.5 452.5c3.308 2.95 5.308 6.616 6 11a6.846 6.846 0 0 1-4-1c-.552 1.503-.552 3.169 0 5a78.1 78.1 0 0 1-9-2.5c1.646 2.449 2.813 4.949 3.5 7.5-1.787.843-3.62 1.01-5.5.5 2.54 2.086 2.373 3.586-.5 4.5-5.252-3.245-6.418-2.245-3.5 3-1.12 2.096-2.62 2.43-4.5 1 .379 1.575.212 3.075-.5 4.5-3.789-.242-7.123-1.742-10-4.5 1.12-2.096 2.62-2.43 4.5-1 .492-1.049.326-2.049-.5-3 1.388-2.579 2.888-2.579 4.5 0 .507-1.496.007-2.663-1.5-3.5 2.182-2.775 4.848-3.775 8-3-1.017-1.049-1.184-2.216-.5-3.5a23.577 23.577 0 0 0 3.5-1 3.647 3.647 0 0 0-1-1.5 6.978 6.978 0 0 0 2.5-3.5c1.333-1.333 2.667-1.333 4 0v-4c1.425-.712 2.925-.879 4.5-.5-1.228-1.49-1.228-2.99 0-4.5z"/><path style="opacity:.037" d="M-.5 454.5c3.088 1.421 3.588 3.421 1.5 6-.383-.556-.883-.889-1.5-1v-5z"/><path style="opacity:.03" d="M166.5 457.5c-.667 0-1 .333-1 1-2.186-.011-3.019-1.011-2.5-3 2.149-1.34 3.316-.673 3.5 2z"/><path style="opacity:.036" d="M358.5 455.5c2.005.754 2.672 1.921 2 3.5-4.053.468-4.72-.698-2-3.5z"/><path style="opacity:.042" d="M166.5 457.5c1.562.233 2.895.9 4 2 .667 0 1 .333 1 1a20.987 20.987 0 0 1 3 4.5c-.394 2.28-1.394 2.78-3 1.5 0-.667-.333-1-1-1-1-1.667-2.333-3-4-4 0-.667-.333-1-1-1v-2c.667 0 1-.333 1-1z"/><path style="opacity:.041" d="M232.5 463.5c0 4.667-2.333 7-7 7 0-.667-.333-1-1-1 .695-1.937-.305-2.937-3-3-.832-3.997.668-6.664 4.5-8 2.122.72 2.622 1.887 1.5 3.5 1.747.352 3.414.852 5 1.5zm-5 2c2.501.011 2.668.678.5 2a2.428 2.428 0 0 1-.5-2z"/><path style="opacity:.045" d="M165.5 460.5c.667 0 1 .333 1 1-.624 2.005.21 3.672 2.5 5 .383-.556.883-.889 1.5-1 .667 0 1 .333 1 1 .016 1.984-.984 2.984-3 3-2.228-.719-4.061-2.052-5.5-4-.383.556-.883.889-1.5 1-.418-.722-1.084-1.222-2-1.5.712-1.425.879-2.925.5-4.5a33.205 33.205 0 0 1 5.5 0z"/><path style="opacity:.041" d="M279.5 474.5c0-.667-.333-1-1-1 0-.667-.333-1-1-1-1.613-1.338-2.113-3.005-1.5-5 2.64-2.395 5.14-4.895 7.5-7.5 3.665-.387 6.498 1.113 8.5 4.5.699 1.574.365 2.907-1 4-1.858-2.912-4.358-4.412-7.5-4.5 2.912 1.858 4.412 4.358 4.5 7.5l-1 1c-1.858-2.912-4.358-4.412-7.5-4.5a21.365 21.365 0 0 1 5 6c-1.248 3.073-2.915 3.24-5 .5z"/><path style="opacity:.034" d="M232.5 463.5c-.085-1.495.581-2.495 2-3 1.611.82 2.278 2.154 2 4-1.459.067-2.792-.266-4-1z"/><path style="opacity:.041" d="M161.5 466.5a31.447 31.447 0 0 0 4.5 5c.483.948.649 1.948.5 3-3.114-.591-5.614-2.258-7.5-5l-1.5 1.5c2.912 1.858 4.412 4.358 4.5 7.5-2.386 1.263-4.219 3.097-5.5 5.5-2.269.758-4.436.591-6.5-.5-.21 1.303-.043 2.636.5 4 .047 1.5-.619 2.5-2 3a67.254 67.254 0 0 0-10-4.5c1.894-2.524 4.227-3.19 7-2-2.78-2.109-2.613-3.942.5-5.5l1 1c.764-3.599 2.93-5.599 6.5-6 .798-4.464 3.464-6.797 8-7zm-3 12h-2c.286-2.433.952-2.433 2 0z"/><path style="opacity:.043" d="M221.5 466.5a6.547 6.547 0 0 0 3 3c.667 0 1 .333 1 1 1.476 1.73 1.142 3.063-1 4a19.887 19.887 0 0 1-4-3.5c-1.135-.749-2.135-.583-3 .5a38.929 38.929 0 0 0 5 5.5c-1.417 2.826-2.917 2.993-4.5.5.208 5.294-2.292 7.627-7.5 7 .263 6.7-2.737 8.7-9 6 0-.667-.333-1-1-1-1.743-6.385.59-9.218 7-8.5-1.245-4.787.755-7.454 6-8l-1-1a14.506 14.506 0 0 0 4-5 12.93 12.93 0 0 1 5-.5zm-11 10c1.978.644 3.311 1.978 4 4-2.549 1.331-4.216.498-5-2.5.556-.383.889-.883 1-1.5zm-3 6c.789.283 1.456.783 2 1.5a14.748 14.748 0 0 0-3 4.5 6.547 6.547 0 0 1-3-3c1.684-.65 3.017-1.65 4-3z"/><path style="opacity:.041" d="M394.5 482.5c0-.667-.333-1-1-1 0-.667-.333-1-1-1 0-.667-.333-1-1-1 0-.667-.333-1-1-1 0-.667-.333-1-1-1 0-.667-.333-1-1-1 2.801-8.405 6.967-9.071 12.5-2 .483.948.649 1.948.5 3-3.114-.591-5.614-2.258-7.5-5l-1.5 1.5a21.365 21.365 0 0 1 5 6c-.248 1.749-1.248 2.582-3 2.5z"/><path style="opacity:.043" d="M277.5 472.5c.667 0 1 .333 1 1 .667 0 1 .333 1 1 1.384 5.628-.949 8.295-7 8 1.518 5.817-.815 8.151-7 7-2.74-2.4-3.573-5.4-2.5-9 1.845-1.85 3.845-2.183 6-1-.718-6.41 2.115-8.743 8.5-7zm-5 3c3.432-.252 4.432 1.081 3 4-1.788-.783-2.788-2.116-3-4zm0 7c-2.162.397-3.495 1.731-4 4a6.547 6.547 0 0 1-3-3 14.748 14.748 0 0 0 4.5-3c.995.566 1.828 1.233 2.5 2z"/><path style="opacity:.047" d="M511.5 471.5v3c-1.333.333-1.333.667 0 1v3c-2.177 1.067-3.511.234-4-2.5.117-2.616 1.45-4.116 4-4.5z"/><path style="opacity:.036" d="M383.5 472.5c2.64 1.294 2.64 2.627 0 4-2.294-1.125-2.294-2.459 0-4zM102.5 473.5c2.005.754 2.672 1.921 2 3.5-4.053.468-4.72-.698-2-3.5z"/><path style="opacity:.044" d="M388.5 476.5c.667 0 1 .333 1 1 .667 0 1 .333 1 1 .667 0 1 .333 1 1 .667 0 1 .333 1 1 .667 0 1 .333 1 1 .667 0 1 .333 1 1a10.515 10.515 0 0 1-2.5 3l-7.5-7.5c1.066-2.012 2.4-2.512 4-1.5z"/><path style="opacity:.042" d="M510.5 481.5c0 .667.333 1 1 1v4c-2.785-.433-5.119-1.766-7-4-1.021.502-1.188 1.168-.5 2l4.5 4.5c-1.417 2.826-2.917 2.993-4.5.5.208 5.294-2.292 7.627-7.5 7 .627 5.208-1.706 7.708-7 7.5 1.112 2.108.446 3.608-2 4.5 0-.667-.333-1-1-1-1-1.667-2.333-3-4-4 0-.667-.333-1-1-1 0-.667-.333-1-1-1 .892-2.446 2.392-3.112 4.5-2 .691-5.241 3.525-7.407 8.5-6.5-1.245-4.787.755-7.454 6-8l-1-1a14.506 14.506 0 0 0 4-5c3.111-.612 5.777.221 8 2.5zm-14 7c1.978.644 3.311 1.978 4 4-2.549 1.331-4.216.498-5-2.5.556-.383.889-.883 1-1.5zm-3 6c.789.283 1.456.783 2 1.5-1.537 1.11-2.203 2.61-2 4.5-2.614.223-4.281-.944-5-3.5 2.153-.099 3.819-.933 5-2.5z"/><path style="opacity:.016" d="M511.5 480.5v1c-.67-.481-.67-.815 0-1z"/><path style="opacity:.043" d="M366.5 511.5h-5c-.333-1.333-.667-1.333-1 0h-3c0-.667-.333-1-1-1-1.624-4.208-.291-5.708 4-4.5-1.376-2.54-.71-4.54 2-6 1.284-.684 2.451-.517 3.5.5-.379-1.575-.212-3.075.5-4.5 1.496-.507 2.663-.007 3.5 1.5.507-1.496.007-2.663-1.5-3.5l4-4h4c-1.017-1.049-1.184-2.216-.5-3.5.741-1.141 1.575-1.141 2.5 0 1.211-.774 1.211-1.607 0-2.5l2.5-2.5 5.5 9c-.387 1.22-1.22 1.887-2.5 2-4.077-1.535-4.577-.701-1.5 2.5-3.547 1.521-6.714.687-9.5-2.5.811 2.641 1.978 5.308 3.5 8-1.12 2.096-2.62 2.43-4.5 1-.492 1.049-.326 2.049.5 3-.387 1.22-1.22 1.887-2.5 2a14.766 14.766 0 0 1-5.5-3l-1 1c1.52 2.162 2.52 4.495 3 7z"/><path style="opacity:.03" d="M196.5 487.5c-.667 0-1 .333-1 1-2.186-.011-3.019-1.011-2.5-3 2.149-1.34 3.316-.673 3.5 2z"/><path style="opacity:.036" d="M387.5 484.5c3.361.703 3.694 2.037 1 4-2.142-.937-2.476-2.27-1-4z"/><path style="opacity:.041" d="M138.5 500.5c0-.667-.333-1-1-1 0-.667-.333-1-1-1 0-.667-.333-1-1-1 0-.667-.333-1-1-1 0-.667-.333-1-1-1 0-.667-.333-1-1-1 2.801-8.405 6.967-9.071 12.5-2 .483.948.649 1.948.5 3-3.114-.591-5.614-2.258-7.5-5l-1.5 1.5a21.365 21.365 0 0 1 5 6c-.248 1.749-1.248 2.582-3 2.5z"/><path style="opacity:.042" d="M196.5 487.5c1.562.233 2.895.9 4 2 .667 0 1 .333 1 1a20.987 20.987 0 0 1 3 4.5c-.394 2.28-1.394 2.78-3 1.5 0-.667-.333-1-1-1-1-1.667-2.333-3-4-4 0-.667-.333-1-1-1v-2c.667 0 1-.333 1-1zM255.5 500.5c0-.667-.333-1-1-1 .453-.958 1.119-1.792 2-2.5-.949-.617-1.782-.451-2.5.5-3.578-3.773-2.911-6.773 2-9 2.122.72 2.622 1.887 1.5 3.5 4.137-.203 5.637 1.63 4.5 5.5-1.734 1.951-3.901 2.951-6.5 3zm2-5c2.501.011 2.668.678.5 2a2.428 2.428 0 0 1-.5-2z"/><path style="opacity:.043" d="M21.5 490.5c.667 0 1 .333 1 1 .667 0 1 .333 1 1 1.384 5.628-.949 8.295-7 8 1.518 5.817-.815 8.151-7 7-2.74-2.4-3.573-5.4-2.5-9 1.845-1.85 3.845-2.183 6-1-.718-6.41 2.116-8.743 8.5-7zm-5 3c3.432-.252 4.432 1.081 3 4-1.788-.783-2.788-2.116-3-4zm0 7c-2.162.397-3.495 1.731-4 4a6.544 6.544 0 0 1-3-3 14.743 14.743 0 0 0 4.5-3c.995.566 1.828 1.233 2.5 2z"/><path style="opacity:.041" d="M195.5 490.5c.667 0 1 .333 1 1-.624 2.005.21 3.672 2.5 5 .383-.556.883-.889 1.5-1 .667 0 1 .333 1 1-.059 2.222-1.225 3.222-3.5 3-7.237-4.393-7.904-3.726-2 2 .483.948.649 1.948.5 3-3.114-.591-5.614-2.258-7.5-5l-1.5 1.5a21.365 21.365 0 0 1 5 6c-.248 1.749-1.248 2.582-3 2.5 0-.667-.333-1-1-1-1.048-2.433-1.714-2.433-2 0-.667 0-1 .333-1 1-.667 0-1 .333-1 1-.667 0-1 .333-1 1h-10c.598-3.231 1.764-3.564 3.5-1 .31-4.141 2.477-6.475 6.5-7 .739-3.908 3.072-6.408 7-7.5-2.716-2.793-2.382-4.96 1-6.5a55.78 55.78 0 0 1 4 1zm-7 18h-2c.286-2.433.952-2.433 2 0z"/><path style="opacity:.036" d="M265.5 489.5c1.476 1.73 1.142 3.063-1 4-2.694-1.963-2.361-3.297 1-4z"/><path style="opacity:.041" d="M309.5 504.5c0-.667-.333-1-1-1 0-.667-.333-1-1-1a14.698 14.698 0 0 0-3-3.5 14.506 14.506 0 0 0 4-5 4.934 4.934 0 0 1 3-.5c.788-4.297 3.121-5.13 7-2.5 4.174 2.085 4.674 4.585 1.5 7.5-1.74-2.454-3.907-3.954-6.5-4.5a38.929 38.929 0 0 1 5 5.5 10.756 10.756 0 0 1-2.5 3 38.929 38.929 0 0 0-5.5-5c-1.021.502-1.188 1.168-.5 2l4.5 4.5-2.5 2.5c-.708-.881-1.542-1.547-2.5-2z"/><path style="opacity:.036" d="M127.5 490.5c2.64 1.294 2.64 2.627 0 4-2.294-1.125-2.294-2.459 0-4z"/><path style="opacity:.041" d="M433.5 492.5a71.042 71.042 0 0 0 3 7.5 3.943 3.943 0 0 1-1 2c-3.791-.886-7.458-2.386-11-4.5 1.466-2.157 3.3-2.49 5.5-1-.51-1.88-.343-3.713.5-5.5 1.288-.239 2.288.261 3 1.5z"/><path style="opacity:.044" d="M132.5 494.5c.667 0 1 .333 1 1 .667 0 1 .333 1 1 .667 0 1 .333 1 1 .667 0 1 .333 1 1 .667 0 1 .333 1 1 .667 0 1 .333 1 1a10.515 10.515 0 0 1-2.5 3l-7.5-7.5c1.066-2.012 2.4-2.512 4-1.5z"/><path style="opacity:.03" d="M479.5 495.5c3.808.939 3.808 2.272 0 4-2.294-1.125-2.294-2.459 0-4z"/><path style="opacity:.043" d="M254.5 499.5c.667 0 1 .333 1 1 1.5 2.009 1 3.342-1.5 4-7.772-5.221-8.272-4.388-1.5 2.5-1.417 2.826-2.917 2.993-4.5.5a8.43 8.43 0 0 0-.5 4h-3c-.175-2.344-1.342-4.011-3.5-5-1.303 1.553-1.136 3.22.5 5h-4c-1.497-5.036.503-7.869 6-8.5l-1-1a14.506 14.506 0 0 0 4-5c3.111-.612 5.777.221 8 2.5z"/><path style="opacity:.042" d="M125.5 511.5h-8c-.333-1.333-.667-1.333-1 0h-3c1.436-3.322 3.769-4.489 7-3.5-1.017-1.049-1.184-2.216-.5-3.5.741-1.141 1.575-1.141 2.5 0 1.211-.774 1.211-1.607 0-2.5l2.5-2.5 5.5 9c-.387 1.22-1.22 1.887-2.5 2-2.558-1.647-3.392-1.313-2.5 1zM427.5 511.5h-4c0-.667-.333-1-1-1 0-.667-.333-1-1-1 0-.667-.333-1-1-1 0-.667-.333-1-1-1 0-.667-.333-1-1-1 2.801-8.405 6.967-9.071 12.5-2 .483.948.649 1.948.5 3-3.114-.591-5.614-2.258-7.5-5l-1.5 1.5c2.742 1.886 4.409 4.386 5 7.5z"/><path style="opacity:.044" d="M307.5 502.5c.667 0 1 .333 1 1 .667 0 1 .333 1 1 .202 2.45-.131 4.783-1 7h-8c-.667-1.333-1.333-1.333-2 0h-6c.849-3.006 2.683-4.006 5.5-3 .782-5.968 3.949-7.968 9.5-6zm-5 2c1.978.644 3.311 1.978 4 4-2.549 1.331-4.216.498-5-2.5.556-.383.889-.883 1-1.5z"/><path style="opacity:.04" d="M480.5 501.5c.667 0 1 .333 1 1 .667 0 1 .333 1 1-.624 2.005.21 3.672 2.5 5 .383-.556.883-.889 1.5-1 .667 0 1 .333 1 1a5.727 5.727 0 0 1-1 3h-5c-.333-1.333-.667-1.333-1 0h-10c.489-2.824 2.156-4.157 5-4 .17-1.322-.163-2.489-1-3.5a10.756 10.756 0 0 1 3-2.5c1.027 1.291 2.027 1.291 3 0z"/><path style="opacity:.036" d="M131.5 502.5c3.361.703 3.694 2.037 1 4-2.142-.937-2.476-2.27-1-4zM413.5 502.5c2.64 1.294 2.64 2.627 0 4-2.294-1.125-2.294-2.459 0-4z"/><path style="opacity:.046" d="M418.5 506.5c.667 0 1 .333 1 1 .667 0 1 .333 1 1 .667 0 1 .333 1 1 .667 0 1 .333 1 1v1h-5a14.698 14.698 0 0 0-3-3.5c1.066-2.012 2.4-2.512 4-1.5z"/><path style="opacity:.036" d="M-.5 506.5c2.37.483 3.037 1.649 2 3.5 1.558.21 2.891.71 4 1.5h-5c0-.667-.333-1-1-1v-4zM9.5 507.5c1.333 1.333 1.333 2.667 0 4h-2c-1.502-2.329-.836-3.663 2-4z"/><path style="opacity:.041" d="M64.5 511.5h-9c-.415-2.448.585-3.781 3-4 2.717.352 4.717 1.685 6 4z"/><path style="opacity:.033" d="M186.5 508.5h2c.667 0 1 .333 1 1l-1 2h-4v-1c.667 0 1-.333 1-1 .667 0 1-.333 1-1z"/><path style="opacity:.035" d="M356.5 510.5v1h-5c1.248-2.19 2.914-2.523 5-1z"/><path style="opacity:.014" d="M233.5 511.5c.667-1.333 1.333-1.333 2 0h-2z"/></svg>